<?xml version="1.0" standalone="no"?>
<!DOCTYPE svg PUBLIC "-//W3C//DTD SVG 20010904//EN"
 "http://www.w3.org/TR/2001/REC-SVG-20010904/DTD/svg10.dtd">
<svg version="1.0" xmlns="http://www.w3.org/2000/svg"
 width="275.000000pt" height="189.000000pt" viewBox="0 0 275.000000 189.000000"
 preserveAspectRatio="xMidYMid meet">
<metadata>
Created by potrace 1.15, written by Peter Selinger 2001-2017
</metadata>
<g transform="translate(0.000000,189.000000) scale(0.100000,-0.100000)"
fill="#000000" stroke="none">
<path d="M1772 1845 c-21 -24 -70 -88 -107 -141 -38 -53 -75 -102 -83 -110
-20 -21 -11 -49 16 -47 12 2 22 -1 22 -6 0 -6 8 -9 18 -9 17 1 122 -56 132
-72 3 -5 18 -12 33 -15 21 -6 27 -4 27 10 0 14 3 14 27 -5 42 -33 48 -10 15
57 -33 64 -55 88 -72 78 -8 -5 -7 -11 1 -22 10 -12 10 -16 -1 -23 -8 -5 -11
-18 -7 -38 l6 -29 -81 48 c-44 27 -85 46 -89 43 -5 -3 -12 2 -15 10 -4 10 23
56 72 123 111 152 133 176 150 162 18 -14 40 -89 59 -198 14 -83 20 -99 31
-89 7 8 -23 182 -41 237 -16 48 -41 81 -61 81 -7 0 -30 -20 -52 -45z"/>
<path d="M843 1828 c-11 -13 -26 -39 -32 -59 -16 -49 -40 -192 -34 -202 10
-17 21 6 27 60 10 84 37 174 54 181 9 3 17 1 20 -6 2 -6 16 -26 32 -44 17 -18
30 -39 30 -45 0 -7 4 -13 9 -13 9 0 91 -120 91 -133 0 -4 -3 -6 -7 -5 -14 4
-97 -38 -112 -55 -21 -27 -29 -20 -37 28 -4 27 -11 44 -18 42 -15 -5 -71 -115
-62 -124 4 -4 16 -1 28 6 15 9 23 10 28 2 8 -14 35 -5 76 26 17 13 36 23 42
23 7 0 12 5 12 11 0 5 5 7 10 4 6 -3 10 -1 10 5 0 7 7 10 15 7 8 -4 17 -2 21
4 3 6 13 8 21 5 21 -8 12 11 -39 87 -44 66 -157 217 -162 217 -1 0 -12 -10
-23 -22z"/>
<path d="M528 1324 c-30 -19 -41 -35 -53 -78 -27 -93 -32 -149 -29 -350 4
-290 28 -351 141 -351 50 0 57 3 89 37 23 26 34 47 34 68 0 41 -23 39 -48 -4
-46 -78 -107 -84 -143 -14 -16 31 -22 63 -24 139 -2 53 -5 102 -8 107 -12 18
-5 229 8 296 19 92 36 116 81 116 47 0 70 -14 82 -50 8 -22 15 -28 27 -23 13
4 15 13 11 36 -7 36 -30 63 -68 83 -37 19 -57 17 -100 -12z"/>
<path d="M1544 1333 c-7 -12 -9 -145 -6 -405 l4 -388 95 0 c85 0 94 2 91 18
-3 14 -13 17 -71 15 -63 -3 -67 -2 -73 22 -3 13 -2 102 3 197 l8 173 43 3 c38
3 41 5 32 23 -7 13 -21 19 -44 19 l-34 0 -7 73 c-3 39 -5 106 -3 147 l3 75 60
0 c39 0 63 5 68 13 14 21 2 25 -81 29 -65 3 -79 1 -88 -14z"/>
<path d="M1117 1263 c-3 -4 -4 -56 -4 -115 2 -106 2 -107 -22 -110 -34 -4 -38
-26 -5 -30 l27 -3 2 -207 c1 -175 4 -210 19 -232 18 -29 59 -34 89 -12 33 25
13 56 -22 34 -40 -25 -46 -2 -49 212 -3 159 0 200 10 201 7 1 22 2 33 3 11 1
21 9 23 18 2 12 -5 17 -30 20 l-33 3 0 110 c0 94 -2 110 -17 113 -9 2 -18 -1
-21 -5z"/>
<path d="M1805 1259 c-8 -12 -8 -697 0 -709 4 -6 13 -10 21 -10 11 0 14 20 14
99 0 55 4 102 10 106 5 3 19 -14 31 -37 52 -105 94 -168 111 -168 29 0 21 25
-42 129 -33 55 -60 108 -60 118 0 11 17 44 39 74 67 94 88 149 56 149 -8 0
-40 -43 -71 -95 -31 -53 -61 -98 -65 -101 -5 -3 -9 96 -9 219 0 189 -2 226
-15 230 -8 4 -17 2 -20 -4z"/>
<path d="M2045 1205 c-12 -90 2 -634 15 -651 15 -18 105 -19 140 -1 13 7 34
27 46 45 20 29 22 46 23 167 2 147 -5 175 -55 214 -19 15 -41 21 -76 21 l-49
0 1 73 c3 169 2 187 -19 187 -16 0 -21 -10 -26 -55z m140 -261 c32 -21 45 -70
45 -174 0 -141 -25 -190 -96 -190 -28 0 -32 4 -38 35 -8 40 -7 312 1 332 7 18
59 16 88 -3z"/>
<path d="M1344 1020 c-77 -31 -68 -145 16 -225 60 -57 74 -108 45 -170 -18
-37 -56 -58 -91 -49 -17 4 -24 2 -24 -9 0 -31 75 -37 117 -10 49 32 68 128 39
196 -7 18 -28 46 -46 62 -38 35 -70 94 -70 128 0 13 9 32 19 41 16 14 23 15
41 6 24 -13 44 -2 32 17 -10 16 -53 24 -78 13z"/>
<path d="M832 994 c-45 -31 -54 -67 -54 -216 1 -113 4 -146 19 -176 24 -50 63
-68 119 -55 24 6 49 6 56 2 21 -14 48 -10 48 6 0 8 -4 15 -9 15 -6 0 -10 68
-10 158 -1 86 -4 184 -7 217 l-6 61 -67 2 c-47 1 -74 -3 -89 -14z m105 -46
c16 -18 18 -40 18 -184 0 -180 -1 -184 -60 -184 -16 0 -35 4 -42 8 -23 14 -35
68 -40 173 -6 119 4 168 43 198 28 22 54 18 81 -11z"/>
</g>
</svg>
