<svg width="672" height="437" viewBox="0 0 672 437" fill="none" xmlns="http://www.w3.org/2000/svg">
<path d="M409.32 37.9608C406.096 41.14 398.575 49.6177 392.896 56.6383C387.063 63.6589 381.384 70.1496 380.156 71.2093C376.472 74.3885 376.188 75.7131 382.612 77.4351C384.238 77.4351 395.447 80.2299 399.98 82.3363C409.957 86.9726 412.744 89.6218 414.562 90.9465C416.097 92.0646 418.223 91.4763 418.223 89.6218C418.223 87.7673 418.683 87.7673 422.367 90.2841C431.092 96.245 429.735 91.6088 424.669 82.7337C419.604 74.256 416.865 72.4015 413.618 72.4015C412.39 73.0638 412.543 73.8586 413.771 75.3157C416.865 78.3624 415.306 77.4351 413.618 78.3624C412.39 79.0247 411.929 80.7467 412.543 83.396L413.464 87.2375L402.283 80.3493C393.84 75.978 385.528 74.9183 385.068 73.8586C384.454 72.534 388.598 66.4406 396.119 57.5655C413.157 37.431 416.534 34.2518 419.143 36.1063C421.906 37.9608 425.283 47.8956 428.2 62.3342C430.349 73.3287 431.27 75.4482 432.958 74.1235C434.032 73.0638 429.428 50.0151 426.665 42.7295C424.209 36.3713 420.371 31.9999 417.302 31.9999C416.227 31.9999 412.697 34.6492 409.32 37.9608Z" fill="white"/>
<path d="M258.597 37.9608C261.82 41.14 269.342 49.6177 275.021 56.6383C280.854 63.6589 286.533 70.1496 287.761 71.2093C291.445 74.3885 291.728 75.7131 285.305 77.4351C283.678 77.4351 272.47 80.2299 267.937 82.3363C257.96 86.9726 255.173 89.6218 253.355 90.9465C251.82 92.0646 249.694 91.4763 249.694 89.6218C249.694 87.7673 249.234 87.7673 245.55 90.2841C236.825 96.245 238.182 91.6088 243.248 82.7337C248.313 74.256 251.052 72.4015 254.299 72.4015C255.527 73.0638 255.374 73.8586 254.146 75.3157C251.052 78.3624 252.611 77.4351 254.299 78.3624C255.527 79.0247 255.988 80.7467 255.374 83.396L254.453 87.2375L265.634 80.3493C274.077 75.978 282.389 74.9183 282.849 73.8586C283.463 72.534 279.319 66.4406 271.798 57.5655C254.76 37.431 251.383 34.2518 248.773 36.1063C246.01 37.9608 242.634 47.8956 239.717 62.3342C237.568 73.3287 236.647 75.4482 234.959 74.1235C233.884 73.0638 238.489 50.0151 241.252 42.7295C243.708 36.3713 247.545 31.9999 250.615 31.9999C251.69 31.9999 255.22 34.6492 258.597 37.9608Z" fill="white"/>
<path d="M280.123 116.055L277.975 118.526C275.182 116.449 272.425 115.411 269.704 115.411C267.913 115.411 266.373 115.84 265.084 116.7C263.795 117.559 262.811 118.598 262.13 119.815C261.486 121.033 260.967 122.572 260.573 124.434C260.215 126.296 259.982 127.908 259.874 129.268C259.803 130.629 259.767 132.222 259.767 134.048C259.767 135.839 260.089 137.88 260.734 140.172C261.414 142.427 262.542 144.54 264.118 146.509C265.693 148.479 267.519 149.464 269.596 149.464C271.852 149.464 275.307 148.282 279.962 145.919C280.428 146.599 281.037 147.727 281.788 149.302C277.277 152.418 273.248 153.975 269.704 153.975C267.412 153.975 265.317 153.277 263.419 151.88C261.522 150.484 260.018 148.712 258.908 146.563C257.833 144.415 256.992 142.177 256.383 139.849C255.81 137.486 255.524 135.248 255.524 133.135C255.524 130.808 255.703 128.552 256.061 126.368C256.419 124.148 257.028 121.928 257.887 119.708C258.746 117.488 260.036 115.697 261.754 114.337C263.509 112.976 265.586 112.296 267.985 112.296C270.062 112.296 272.21 112.654 274.43 113.37C276.65 114.086 278.548 114.981 280.123 116.055ZM295.861 122.984L298.063 122.286C298.457 123.611 298.833 128.588 299.191 137.217C299.585 145.811 299.853 150.43 299.996 151.075C299.674 152.185 299.048 152.74 298.117 152.74C297.472 152.74 296.845 152.471 296.237 151.934C295.664 151.397 295.306 150.753 295.163 150.001C295.234 147.96 295.306 144.862 295.377 140.709C293.515 141.174 291.976 141.407 290.758 141.407C288.896 141.407 287.285 141.031 285.924 140.279C284.564 139.527 283.507 138.489 282.755 137.164C282.039 135.839 281.52 134.442 281.198 132.974C280.875 131.47 280.714 129.859 280.714 128.14C280.714 126.78 280.893 124.989 281.251 122.769L283.668 123.36C283.704 123.825 283.758 124.721 283.829 126.046C283.937 127.335 284.026 128.266 284.098 128.839C284.17 129.411 284.277 130.235 284.42 131.309C284.599 132.348 284.832 133.135 285.119 133.672C285.441 134.174 285.817 134.729 286.246 135.338C286.712 135.946 287.285 136.376 287.965 136.627C288.681 136.877 289.505 137.003 290.436 137.003C291.618 137.003 293.265 136.662 295.377 135.982C295.377 135.051 295.467 132.992 295.646 129.805C295.825 126.583 295.914 124.577 295.914 123.79C295.914 123.324 295.897 123.056 295.861 122.984ZM306.281 128.301L305.206 125.562C306.137 124.631 307.319 123.897 308.751 123.36C310.184 122.787 311.598 122.501 312.995 122.501C319.046 122.501 322.072 127.728 322.072 138.184C322.072 139.616 321.982 141.729 321.803 144.522C321.66 147.315 321.588 149.41 321.588 150.806C321.302 151.916 320.747 152.471 319.923 152.471C319.279 152.471 318.688 152.149 318.151 151.505C317.614 150.86 317.345 150.144 317.345 149.356C317.345 149.105 317.363 148.926 317.399 148.819C315.179 150.967 312.816 152.042 310.309 152.042C308.411 152.042 306.746 151.361 305.314 150.001C303.917 148.604 303.219 146.921 303.219 144.952C303.219 141.622 304.508 138.614 307.086 135.928C309.7 133.243 312.654 131.9 315.949 131.9C316.092 131.9 316.235 131.918 316.378 131.954C316.522 131.954 316.683 131.972 316.862 132.007C317.077 132.043 317.238 132.061 317.345 132.061C317.059 127.872 315.394 125.777 312.35 125.777C310.56 125.777 308.537 126.618 306.281 128.301ZM317.506 145.113C317.578 142.606 317.614 140.709 317.614 139.42C317.614 138.345 317.578 136.841 317.506 134.908H317.077C314.534 134.944 312.207 135.893 310.094 137.755C308.017 139.616 306.979 141.872 306.979 144.522C306.979 145.668 307.319 146.581 307.999 147.261C308.716 147.942 309.575 148.282 310.578 148.282C312.153 148.282 314.463 147.226 317.506 145.113ZM344.523 124.864L344.254 127.173C342.75 126.959 341.461 126.851 340.387 126.851C337.916 126.851 335.875 127.603 334.264 129.107C332.653 130.575 331.543 132.33 330.934 134.371C330.361 136.376 330.075 138.614 330.075 141.085C330.075 142.23 330.146 143.251 330.289 144.146C330.433 145.041 330.683 145.919 331.041 146.778C331.435 147.637 332.026 148.318 332.814 148.819C333.637 149.284 334.64 149.517 335.822 149.517C337.397 149.517 339.402 149.213 341.837 148.604C342.589 148.318 343.18 148.174 343.61 148.174C344.469 148.174 344.988 149.177 345.167 151.182C342.016 152.185 339.098 152.686 336.413 152.686C332.51 152.686 329.86 151.737 328.463 149.839C327.103 147.906 326.422 144.791 326.422 140.494C326.422 137.987 326.583 135.803 326.906 133.941C327.264 132.043 327.872 130.289 328.732 128.677C329.591 127.03 330.827 125.777 332.438 124.918C334.085 124.058 336.09 123.629 338.454 123.629C341.103 123.629 343.126 124.04 344.523 124.864ZM346.188 126.851L345.704 124.488C350.503 124.201 358.058 123.808 368.371 123.306C369.23 123.342 369.964 123.664 370.573 124.273C371.181 124.882 371.486 125.526 371.486 126.207C371.486 127.281 370.77 127.89 369.337 128.033L359.293 127.549C359.472 130.235 359.562 134.156 359.562 139.312C359.598 144.433 359.669 148.174 359.777 150.538C359.454 151.576 358.828 152.095 357.897 152.095C357.288 152.095 356.697 151.845 356.124 151.343C355.552 150.842 355.193 150.233 355.05 149.517C355.552 140.709 356.071 133.314 356.608 127.335L346.188 126.851ZM373.849 124.273L376.266 124.81C376.338 125.956 376.445 127.299 376.588 128.839C376.767 130.378 376.964 132.133 377.179 134.102C378.611 133.672 379.972 133.458 381.261 133.458C382.801 133.458 384.233 133.762 385.558 134.371C386.883 134.944 388.011 135.714 388.942 136.68C389.873 137.647 390.607 138.757 391.144 140.01C391.681 141.228 391.95 142.481 391.95 143.77C391.95 145.023 391.681 146.169 391.144 147.208C390.607 148.246 389.891 149.141 388.996 149.893C388.1 150.609 387.062 151.164 385.88 151.558C384.699 151.988 383.445 152.203 382.121 152.203C381.87 152.203 381.315 152.185 380.455 152.149C379.596 152.113 378.683 152.024 377.716 151.88C376.785 151.773 375.944 151.612 375.192 151.397C374.44 151.182 374.046 150.878 374.01 150.484C374.01 149.875 373.992 149.052 373.956 148.013C373.956 146.939 373.939 145.757 373.903 144.468C373.903 143.179 373.885 141.837 373.849 140.44C373.813 139.008 373.777 137.629 373.742 136.304C373.742 134.979 373.724 133.762 373.688 132.652C373.688 131.542 373.688 130.665 373.688 130.02C373.688 128.015 373.742 126.099 373.849 124.273ZM377.663 137.432L377.179 148.228C378.611 148.729 379.972 148.98 381.261 148.98C382.264 148.98 383.177 148.819 384 148.497C384.86 148.139 385.576 147.691 386.149 147.154C386.722 146.581 387.169 145.936 387.492 145.22C387.814 144.504 387.975 143.752 387.975 142.964C387.975 142.177 387.814 141.443 387.492 140.762C387.169 140.046 386.686 139.42 386.041 138.882C385.397 138.345 384.609 137.934 383.678 137.647C382.747 137.325 381.691 137.164 380.509 137.164C380.115 137.164 379.686 137.2 379.22 137.271C378.755 137.307 378.235 137.361 377.663 137.432ZM416.871 146.295L417.409 148.658C415.833 149.231 413.488 149.875 410.372 150.591C407.293 151.272 405.001 151.612 403.497 151.612C401.958 151.612 400.615 151.111 399.469 150.108C398.323 149.07 397.464 147.763 396.891 146.187C396.318 144.576 395.888 143 395.602 141.461C395.351 139.885 395.226 138.345 395.226 136.841C395.226 127.89 399.272 123.414 407.365 123.414C409.298 123.414 410.999 124.04 412.467 125.294C413.935 126.511 414.669 128.104 414.669 130.074C414.669 131.148 414.365 132.097 413.756 132.921C413.183 133.744 412.467 134.407 411.608 134.908C410.784 135.373 409.71 135.803 408.385 136.197C407.096 136.591 405.95 136.877 404.948 137.056C403.945 137.235 402.746 137.432 401.349 137.647C399.953 137.862 398.986 138.023 398.449 138.13C398.484 139.169 398.538 140.082 398.61 140.87C398.717 141.658 398.896 142.517 399.147 143.448C399.433 144.343 399.791 145.095 400.221 145.704C400.687 146.277 401.313 146.76 402.101 147.154C402.889 147.548 403.82 147.745 404.894 147.745C406.183 147.745 407.759 147.637 409.621 147.422C411.482 147.172 413.13 146.921 414.562 146.671C416.03 146.42 416.8 146.295 416.871 146.295ZM398.663 134.8C403.533 133.404 407.526 131.936 410.641 130.396C410.39 129.214 410.05 128.355 409.621 127.818C409.191 127.281 408.546 127.012 407.687 127.012C405.503 127.012 403.515 127.764 401.725 129.268C399.97 130.772 398.95 132.616 398.663 134.8ZM276.981 184.951C282.531 183.769 285.915 183.178 287.133 183.178C291.931 183.178 294.33 185.237 294.33 189.355C294.33 190.787 294.079 192.184 293.578 193.545C293.113 194.869 292.522 195.747 291.806 196.176C294.599 198.074 295.995 200.688 295.995 204.018C295.995 207.169 294.957 209.622 292.88 211.377C290.839 213.131 288.135 214.008 284.769 214.008C280.759 214.008 277.769 212.934 275.8 210.786L276.981 184.951ZM280.043 198.432L280.526 209.336C281.421 209.765 282.442 209.98 283.588 209.98C285.808 209.98 287.849 209.282 289.711 207.885C291.573 206.489 292.504 204.86 292.504 202.998C292.504 201.709 292.003 200.527 291 199.453C289.997 198.343 288.726 197.788 287.186 197.788C286.291 197.788 283.91 198.003 280.043 198.432ZM279.506 187.368L279.882 195.639C280.419 195.568 281.242 195.514 282.352 195.478C283.462 195.442 284.358 195.371 285.038 195.263C285.718 195.12 286.47 194.852 287.294 194.458C288.117 194.028 288.762 193.294 289.227 192.255C289.729 191.217 290.069 189.856 290.248 188.173C289.89 187.099 288.798 186.562 286.972 186.562C286.148 186.562 284.859 186.687 283.104 186.938C281.35 187.189 280.15 187.332 279.506 187.368ZM316.351 219.541L313.934 219.004C313.934 218.61 313.863 217.446 313.72 215.512C313.576 213.579 313.505 212.182 313.505 211.323C313.505 210.607 313.559 209.837 313.666 209.013H317.157C317.336 208.405 317.623 207.491 318.017 206.274C318.446 205.057 318.733 204.197 318.876 203.696C319.019 203.195 319.216 202.461 319.467 201.494C319.753 200.491 319.932 199.65 320.004 198.969C320.111 198.253 320.201 197.376 320.272 196.338C320.38 195.299 320.434 194.207 320.434 193.061C320.434 190.376 320.326 187.35 320.111 183.984C322.116 184.091 324.229 184.163 326.449 184.199C328.705 184.235 330.549 184.288 331.981 184.36C333.414 184.432 334.882 184.593 336.386 184.843C336.493 187.278 336.6 191.289 336.708 196.875C336.851 202.425 336.976 206.417 337.084 208.852H341.273V210.464C341.273 211.394 341.291 212.719 341.327 214.438C341.399 216.157 341.434 217.303 341.434 217.876C341.434 218.95 341.399 219.773 341.327 220.346L338.91 219.809C338.767 219.308 338.624 218.663 338.48 217.876C338.373 217.124 338.248 216.3 338.104 215.405C337.961 214.51 337.854 213.865 337.782 213.471C335.741 213.364 332.483 213.149 328.007 212.827C323.567 212.505 320.093 212.29 317.587 212.182L316.351 219.541ZM324.623 187.368C324.587 187.905 324.551 189.033 324.516 190.752C324.48 192.435 324.426 193.724 324.354 194.619C324.319 195.514 324.211 196.767 324.032 198.379C323.889 199.954 323.692 201.279 323.441 202.353C323.191 203.392 322.815 204.537 322.313 205.791C321.848 207.008 321.293 208.064 320.648 208.96H332.411L333.485 187.797C332.984 187.762 331.659 187.708 329.511 187.636C327.398 187.565 325.769 187.475 324.623 187.368ZM342.348 201.064C342.348 199.632 342.491 198.038 342.777 196.284C343.1 194.529 343.565 192.685 344.174 190.752C344.782 188.818 345.696 187.207 346.913 185.918C348.13 184.629 349.545 183.984 351.156 183.984C354.594 183.984 357.351 185.542 359.428 188.657C361.504 191.736 362.543 195.174 362.543 198.969C362.543 200.581 362.364 202.192 362.006 203.803C361.684 205.379 361.164 206.936 360.448 208.476C359.732 210.016 358.694 211.305 357.333 212.343C356.008 213.346 354.45 213.919 352.66 214.062C349.366 213.632 346.823 212.236 345.033 209.873C343.243 207.474 342.348 204.537 342.348 201.064ZM351.478 186.777C350.225 186.92 349.169 188.066 348.309 190.214C347.45 192.363 346.895 194.458 346.644 196.499C346.394 198.504 346.268 200.276 346.268 201.816C346.268 203.821 346.877 205.683 348.095 207.402C349.348 209.085 350.744 209.926 352.284 209.926C353.394 209.926 354.397 209.497 355.292 208.637C356.187 207.778 356.885 206.722 357.387 205.468C357.924 204.179 358.318 202.89 358.568 201.601C358.855 200.312 358.998 199.166 358.998 198.164C358.998 195.227 358.336 192.667 357.011 190.483C355.686 188.299 353.842 187.063 351.478 186.777ZM387.948 186.025L391.6 185.703C393.391 190.537 395.217 199.542 397.079 212.719C396.47 212.863 395.862 212.934 395.253 212.934C394.716 212.934 394.089 212.845 393.373 212.666C392.872 210.696 392.263 207.223 391.547 202.246C390.866 197.269 390.258 193.741 389.721 191.665C387.966 194.529 385.603 199.793 382.631 207.456C382.38 207.491 381.933 207.563 381.288 207.671C380.679 207.778 380.214 207.832 379.892 207.832C379.498 207.832 379.032 207.778 378.495 207.671C377.922 206.202 377.063 203.857 375.917 200.634C374.807 197.376 373.912 194.923 373.231 193.276C369.794 202.085 367.645 208.602 366.786 212.827L364.691 212.236C364.87 209.515 365.855 204.77 367.645 198.003C369.436 191.199 370.51 186.866 370.868 185.005C371.298 185.005 371.781 185.058 372.318 185.166C372.891 185.237 373.321 185.273 373.607 185.273C374.538 186.884 375.809 189.982 377.421 194.565C379.032 199.113 380.106 201.959 380.643 203.105C383.365 195.371 385.8 189.677 387.948 186.025Z" fill="white"/>
<line x1="336.908" y1="266.286" x2="336.908" y2="240.144" stroke="white" stroke-width="3" stroke-linecap="round" stroke-linejoin="round"/>
<line x1="1.5" y1="-1.5" x2="27.0725" y2="-1.5" transform="matrix(-0.478573 0.878047 -0.926573 -0.376115 248.473 242.618)" stroke="white" stroke-width="3" stroke-linecap="round" stroke-linejoin="round"/>
<line x1="1.5" y1="-1.5" x2="15.8498" y2="-1.5" transform="matrix(0.241344 -0.97044 0.983277 0.182118 291.592 260.78)" stroke="white" stroke-width="3" stroke-linecap="round" stroke-linejoin="round"/>
<line x1="1.5" y1="-1.5" x2="32.3044" y2="-1.5" transform="matrix(0.764886 0.644166 -0.749107 0.662449 181.195 52.2412)" stroke="white" stroke-width="3" stroke-linecap="round" stroke-linejoin="round"/>
<line x1="1.5" y1="-1.5" x2="16.1668" y2="-1.5" transform="matrix(-0.713632 0.700521 -0.796665 -0.604421 189.439 240.732)" stroke="white" stroke-width="3" stroke-linecap="round" stroke-linejoin="round"/>
<line x1="1.5" y1="-1.5" x2="47.9966" y2="-1.5" transform="matrix(-0.889885 0.456185 -0.566994 -0.823722 169.046 202.621)" stroke="white" stroke-width="3" stroke-linecap="round" stroke-linejoin="round"/>
<line x1="172.964" y1="159.607" x2="140.759" y2="158.282" stroke="white" stroke-width="3" stroke-linecap="round" stroke-linejoin="round"/>
<path d="M138.266 96.6854L181.999 105.74" stroke="white" stroke-width="3" stroke-linecap="round" stroke-linejoin="round"/>
<line x1="1.5" y1="-1.5" x2="27.0725" y2="-1.5" transform="matrix(0.478573 0.878047 0.926573 -0.376115 423.321 243.571)" stroke="white" stroke-width="3" stroke-linecap="round" stroke-linejoin="round"/>
<line x1="1.5" y1="-1.5" x2="15.8498" y2="-1.5" transform="matrix(-0.241344 -0.97044 -0.983277 0.182118 380.202 261.733)" stroke="white" stroke-width="3" stroke-linecap="round" stroke-linejoin="round"/>
<line x1="1.5" y1="-1.5" x2="32.3044" y2="-1.5" transform="matrix(-0.764886 0.644166 0.749107 0.662449 490.599 53.1942)" stroke="white" stroke-width="3" stroke-linecap="round" stroke-linejoin="round"/>
<line x1="1.5" y1="-1.5" x2="16.1668" y2="-1.5" transform="matrix(0.713632 0.700521 0.796665 -0.604421 482.355 241.685)" stroke="white" stroke-width="3" stroke-linecap="round" stroke-linejoin="round"/>
<line x1="1.5" y1="-1.5" x2="47.9966" y2="-1.5" transform="matrix(0.889885 0.456185 0.566994 -0.823722 502.748 203.574)" stroke="white" stroke-width="3" stroke-linecap="round" stroke-linejoin="round"/>
<line x1="1.5" y1="-1.5" x2="33.705" y2="-0.175359" transform="matrix(1 0 0 -1 497.33 159.06)" stroke="white" stroke-width="3" stroke-linecap="round" stroke-linejoin="round"/>
<path d="M533.528 97.6384L489.795 106.693" stroke="white" stroke-width="3" stroke-linecap="round" stroke-linejoin="round"/>
<path d="M101.063 307.876L100.536 310.117C99.0415 310.234 97.0933 310.352 94.6909 310.469C92.2886 310.586 90.3403 310.688 88.8462 310.776V320.708C90.3403 320.298 91.7026 320.093 92.9331 320.093C96.1851 320.093 98.7778 321.177 100.711 323.345C102.645 325.483 103.612 328.208 103.612 331.519C103.612 333.364 102.879 334.976 101.415 336.353C99.9497 337.7 98.2358 338.682 96.2729 339.297C94.3394 339.883 92.3765 340.176 90.3843 340.176C87.9526 340.176 86.2681 339.736 85.3306 338.857C85.4185 336.338 85.5063 331.431 85.5942 324.136C85.6821 316.841 85.8286 311.421 86.0337 307.876H101.063ZM88.8901 322.686C88.8901 322.715 88.8901 323.052 88.8901 323.696C88.8901 324.341 88.8755 325.659 88.8462 327.651C88.8462 329.644 88.8462 332.31 88.8462 335.649C89.7251 336.646 90.853 337.144 92.23 337.144C94.0464 337.144 95.8042 336.396 97.5034 334.902C99.2026 333.379 100.052 331.753 100.052 330.024C100.052 327.739 99.2466 325.894 97.6353 324.487C96.0532 323.052 94.0757 322.334 91.7026 322.334C90.9116 322.334 89.9741 322.451 88.8901 322.686ZM102.162 344.131L100.887 341.846C102.499 340.762 103.875 339.517 105.018 338.11C106.161 336.675 107.054 335.254 107.699 333.848C108.343 332.412 108.856 330.786 109.237 328.97C109.618 327.153 109.852 325.483 109.94 323.96C110.057 322.407 110.116 320.62 110.116 318.599C110.116 317.544 110.145 315.918 110.204 313.721C110.292 311.494 110.335 309.795 110.335 308.623C111.185 308.477 112.489 308.403 114.247 308.403C114.979 308.403 116.092 308.433 117.586 308.491C119.081 308.521 120.208 308.535 120.97 308.535C122.376 308.535 123.666 308.477 124.837 308.359C125.189 310.322 125.365 313.398 125.365 317.588C125.365 318.701 125.35 320.459 125.321 322.861C125.292 325.234 125.277 327.036 125.277 328.267C125.277 333.071 125.482 337.026 125.892 340.132C125.628 341.04 125.13 341.494 124.398 341.494C123.871 341.494 123.358 341.274 122.86 340.835C122.362 340.425 122.054 339.912 121.937 339.297C121.996 337.012 122.025 335.269 122.025 334.067C122.025 332.368 121.981 329.702 121.893 326.069C121.834 322.437 121.805 319.624 121.805 317.632C121.805 314.937 121.834 312.93 121.893 311.611C121.19 311.553 119.974 311.509 118.246 311.479C116.517 311.45 115.199 311.377 114.291 311.26C114.027 312.783 113.807 314.775 113.631 317.236C113.485 319.668 113.353 321.836 113.236 323.74C113.148 325.615 112.884 327.695 112.445 329.98C112.035 332.236 111.463 334.199 110.731 335.869C110.028 337.539 108.944 339.121 107.479 340.615C106.043 342.139 104.271 343.311 102.162 344.131ZM137.933 308.14L141.273 308.359C142.093 311.992 143.778 317.134 146.327 323.784C148.875 330.405 150.56 335.356 151.38 338.638C151.38 339.487 151.234 340.117 150.941 340.527C150.648 340.967 150.282 341.187 149.842 341.187C149.461 341.187 149.095 341.025 148.744 340.703C148.421 340.41 148.202 339.985 148.084 339.429C147.821 338.14 146.971 335.562 145.536 331.694C139.5 330.933 135.707 330.464 134.154 330.288C133.773 331.343 133.304 333.057 132.748 335.43C132.191 337.803 131.751 339.443 131.429 340.352C130.99 340.879 130.492 341.143 129.935 341.143C129.32 341.143 128.792 340.864 128.353 340.308C127.914 339.78 127.694 339.121 127.694 338.33C128.631 334.902 130.331 329.863 132.792 323.213C135.252 316.562 136.966 311.538 137.933 308.14ZM139.471 312.578C138.885 316.123 137.259 321.323 134.593 328.179H139.515C141.742 328.179 143.602 328.252 145.096 328.398C142.079 321.924 140.204 316.65 139.471 312.578ZM169.793 308.535L170.233 310.513C168.944 310.601 166.688 310.747 163.465 310.952C160.243 311.128 157.987 311.274 156.698 311.392C156.786 314.175 156.844 318.833 156.874 325.366C156.903 331.899 156.976 336.689 157.093 339.736C156.83 340.645 156.317 341.099 155.555 341.099C155.028 341.099 154.515 340.879 154.017 340.439C153.548 340 153.255 339.473 153.138 338.857C153.46 335.166 153.666 326.538 153.753 312.974C153.753 312.476 153.753 311.714 153.753 310.688C153.783 309.663 153.797 308.857 153.797 308.271C155.379 308.359 156.976 308.403 158.587 308.403C159.232 308.403 160.199 308.403 161.488 308.403C162.777 308.374 163.744 308.359 164.388 308.359C166.38 308.359 168.182 308.418 169.793 308.535ZM172.079 325.278C172.079 324.282 172.079 323.535 172.079 323.037C172.079 322.51 172.093 321.719 172.123 320.664C172.181 319.609 172.24 318.774 172.298 318.159C172.386 317.544 172.503 316.753 172.65 315.786C172.796 314.79 172.987 313.999 173.221 313.413C173.456 312.798 173.719 312.109 174.012 311.348C174.334 310.586 174.73 309.971 175.199 309.502C175.667 309.033 176.18 308.594 176.737 308.184C177.293 307.744 177.953 307.422 178.714 307.217C179.476 307.012 180.311 306.909 181.219 306.909C183.036 306.909 184.618 307.275 185.965 308.008C187.313 308.711 188.368 309.604 189.129 310.688C189.891 311.772 190.492 313.105 190.931 314.688C191.4 316.27 191.693 317.778 191.81 319.214C191.957 320.649 192.03 322.231 192.03 323.96C192.03 325.132 192 326.187 191.942 327.124C191.913 328.062 191.825 329.131 191.678 330.332C191.561 331.504 191.371 332.544 191.107 333.452C190.873 334.36 190.536 335.283 190.096 336.221C189.657 337.129 189.129 337.891 188.514 338.506C187.928 339.092 187.181 339.575 186.273 339.956C185.365 340.337 184.354 340.527 183.241 340.527C181.424 340.527 179.857 340.308 178.539 339.868C177.25 339.429 176.18 338.813 175.331 338.022C174.51 337.231 173.851 336.191 173.353 334.902C172.884 333.613 172.547 332.207 172.342 330.684C172.167 329.16 172.079 327.358 172.079 325.278ZM188.866 325.63C188.866 324.194 188.749 322.7 188.514 321.147C188.309 319.595 187.943 317.925 187.416 316.138C186.917 314.351 186.112 312.9 184.999 311.787C183.885 310.645 182.552 310.073 181 310.073C179.828 310.073 178.788 310.864 177.879 312.446C177 313.999 176.371 315.757 175.99 317.72C175.609 319.653 175.418 321.484 175.418 323.213C175.418 324.414 175.418 325.337 175.418 325.981C175.448 326.597 175.506 327.49 175.594 328.662C175.682 329.805 175.799 330.713 175.946 331.387C176.122 332.061 176.385 332.837 176.737 333.716C177.088 334.595 177.499 335.283 177.967 335.781C178.465 336.25 179.095 336.675 179.857 337.056C180.648 337.407 181.527 337.598 182.494 337.627C184.632 337.51 186.229 336.309 187.284 334.023C188.338 331.738 188.866 328.94 188.866 325.63ZM191.854 310.513L191.415 308.535L208.202 307.568C208.934 307.598 209.549 307.861 210.047 308.359C210.545 308.857 210.794 309.399 210.794 309.985C210.794 310.366 210.648 310.703 210.355 310.996C210.062 311.289 209.623 311.465 209.037 311.523L201.654 311.128C202.386 321.47 202.928 330.874 203.28 339.341C203.016 340.22 202.518 340.659 201.786 340.659C201.258 340.659 200.746 340.439 200.248 340C199.75 339.59 199.442 339.077 199.325 338.462C199.383 336.88 199.413 334.478 199.413 331.255C199.413 330.054 199.398 328.252 199.369 325.85C199.369 323.447 199.369 321.646 199.369 320.444C199.369 316.958 199.427 313.809 199.544 310.996C196.234 310.762 193.67 310.601 191.854 310.513ZM212.596 338.857L212.816 307.92C213.138 306.836 214.398 306.294 216.595 306.294C218.617 306.294 220.477 306.572 222.176 307.129C223.875 307.656 225.296 308.564 226.439 309.854C227.611 311.113 228.197 312.637 228.197 314.424C228.197 315.83 227.845 317.192 227.142 318.511C226.468 319.829 225.633 320.679 224.637 321.06C226.512 321.323 228.021 322.451 229.164 324.443C230.306 326.436 230.877 328.794 230.877 331.519C230.877 333.364 230.145 334.976 228.68 336.353C227.215 337.7 225.501 338.682 223.539 339.297C221.605 339.883 219.642 340.176 217.65 340.176C215.218 340.176 213.534 339.736 212.596 338.857ZM216.2 323.477C216.2 325.498 216.17 329.556 216.112 335.649C216.991 336.646 218.119 337.144 219.496 337.144C221.312 337.144 223.07 336.396 224.769 334.902C226.468 333.379 227.318 331.753 227.318 330.024C227.318 327.886 226.6 326.216 225.165 325.015C223.729 323.813 221.883 323.213 219.627 323.213C218.133 323.213 216.991 323.301 216.2 323.477ZM216.112 320.225L218.836 320.181C220.711 320.181 222.147 319.639 223.143 318.555C224.168 317.441 224.681 316.123 224.681 314.6C224.681 313.047 224.168 311.714 223.143 310.601C222.118 309.458 220.697 308.887 218.88 308.887C218.06 308.887 217.093 309.062 215.98 309.414C216.039 311.201 216.068 313.413 216.068 316.05C216.097 318.687 216.112 320.078 216.112 320.225ZM234.481 325.278C234.481 324.282 234.481 323.535 234.481 323.037C234.481 322.51 234.496 321.719 234.525 320.664C234.583 319.609 234.642 318.774 234.701 318.159C234.789 317.544 234.906 316.753 235.052 315.786C235.199 314.79 235.389 313.999 235.624 313.413C235.858 312.798 236.122 312.109 236.415 311.348C236.737 310.586 237.132 309.971 237.601 309.502C238.07 309.033 238.583 308.594 239.139 308.184C239.696 307.744 240.355 307.422 241.117 307.217C241.878 307.012 242.713 306.909 243.622 306.909C245.438 306.909 247.02 307.275 248.368 308.008C249.715 308.711 250.77 309.604 251.532 310.688C252.293 311.772 252.894 313.105 253.333 314.688C253.802 316.27 254.095 317.778 254.212 319.214C254.359 320.649 254.432 322.231 254.432 323.96C254.432 325.132 254.403 326.187 254.344 327.124C254.315 328.062 254.227 329.131 254.081 330.332C253.963 331.504 253.773 332.544 253.509 333.452C253.275 334.36 252.938 335.283 252.499 336.221C252.059 337.129 251.532 337.891 250.917 338.506C250.331 339.092 249.583 339.575 248.675 339.956C247.767 340.337 246.756 340.527 245.643 340.527C243.827 340.527 242.259 340.308 240.941 339.868C239.652 339.429 238.583 338.813 237.733 338.022C236.913 337.231 236.253 336.191 235.755 334.902C235.287 333.613 234.95 332.207 234.745 330.684C234.569 329.16 234.481 327.358 234.481 325.278ZM251.268 325.63C251.268 324.194 251.151 322.7 250.917 321.147C250.711 319.595 250.345 317.925 249.818 316.138C249.32 314.351 248.514 312.9 247.401 311.787C246.288 310.645 244.955 310.073 243.402 310.073C242.23 310.073 241.19 310.864 240.282 312.446C239.403 313.999 238.773 315.757 238.392 317.72C238.011 319.653 237.821 321.484 237.821 323.213C237.821 324.414 237.821 325.337 237.821 325.981C237.85 326.597 237.909 327.49 237.997 328.662C238.084 329.805 238.202 330.713 238.348 331.387C238.524 332.061 238.788 332.837 239.139 333.716C239.491 334.595 239.901 335.283 240.37 335.781C240.868 336.25 241.498 336.675 242.259 337.056C243.05 337.407 243.929 337.598 244.896 337.627C247.035 337.51 248.631 336.309 249.686 334.023C250.741 331.738 251.268 328.94 251.268 325.63ZM258.695 308.447L260.672 307.92C260.672 308.857 260.687 309.385 260.716 309.502C262.386 308.389 264.73 307.832 267.748 307.832C271 307.832 273.431 308.857 275.042 310.908C276.654 312.93 277.459 315.771 277.459 319.434C277.459 322.686 276.668 325.381 275.086 327.52C273.504 329.658 271.117 330.728 267.923 330.728C267.396 330.728 265.287 330.552 261.595 330.2C261.654 332.339 261.771 335.664 261.947 340.176C261.683 341.084 261.17 341.538 260.409 341.538C259.881 341.538 259.369 341.318 258.871 340.879C258.402 340.469 258.109 339.956 257.992 339.341C258.08 336.88 258.167 332.09 258.255 324.971C258.373 317.852 258.519 312.344 258.695 308.447ZM261.112 312.446L261.463 326.157C263.075 327.036 264.935 327.476 267.044 327.476C269.066 327.476 270.78 326.714 272.186 325.19C273.592 323.667 274.295 321.807 274.295 319.609C274.295 317.236 273.563 315.098 272.098 313.193C270.633 311.289 268.802 310.337 266.605 310.337C264.818 310.337 262.987 311.04 261.112 312.446ZM281.722 307.788L283.7 308.228C283.993 313.062 284.33 321.104 284.71 332.354C290.423 322.188 294.349 314.014 296.488 307.832C296.927 307.48 297.352 307.305 297.762 307.305C298.407 307.305 298.934 307.686 299.344 308.447C299.784 309.209 300.018 310.073 300.047 311.04C300.135 313.765 300.208 318.364 300.267 324.839C300.355 331.313 300.472 336.147 300.619 339.341C300.355 340.22 299.857 340.659 299.125 340.659C298.597 340.659 298.084 340.439 297.586 340C297.088 339.59 296.781 339.077 296.664 338.462C296.751 335.913 296.795 332.002 296.795 326.729C296.825 321.455 296.854 317.896 296.883 316.05C296.239 317.163 295.111 319.272 293.5 322.378C291.888 325.483 290.394 328.149 289.017 330.376C287.669 332.603 286.278 334.536 284.842 336.177L285.018 339.736C284.754 340.645 284.242 341.099 283.48 341.099C282.953 341.099 282.44 340.879 281.942 340.439C281.473 340 281.18 339.473 281.063 338.857C281.151 336.367 281.239 331.489 281.327 324.224C281.415 316.958 281.546 311.479 281.722 307.788ZM302.86 310.513L302.42 308.535L319.208 307.568C319.94 307.598 320.555 307.861 321.053 308.359C321.551 308.857 321.8 309.399 321.8 309.985C321.8 310.366 321.654 310.703 321.361 310.996C321.068 311.289 320.628 311.465 320.042 311.523L312.66 311.128C313.392 321.47 313.934 330.874 314.286 339.341C314.022 340.22 313.524 340.659 312.792 340.659C312.264 340.659 311.751 340.439 311.253 340C310.755 339.59 310.448 339.077 310.331 338.462C310.389 336.88 310.418 334.478 310.418 331.255C310.418 330.054 310.404 328.252 310.375 325.85C310.375 323.447 310.375 321.646 310.375 320.444C310.375 316.958 310.433 313.809 310.55 310.996C307.24 310.762 304.676 310.601 302.86 310.513ZM340.345 338.022L340.785 340C339.642 340 337.562 340.044 334.544 340.132C331.556 340.249 329.388 340.308 328.041 340.308C325.873 340.308 324.393 340.205 323.602 340C323.895 336.777 324.071 331.387 324.129 323.828C324.188 316.27 324.378 310.996 324.701 308.008C325.697 308.096 328.333 308.169 332.611 308.228C336.917 308.286 339.73 308.418 341.048 308.623L341.532 310.601C340.213 310.835 337.577 311.113 333.622 311.436C329.667 311.758 327.586 311.934 327.381 311.963C327.411 312.637 327.469 314.014 327.557 316.094C327.674 318.174 327.748 319.888 327.777 321.235C328.773 321.353 330.589 321.528 333.226 321.763C335.863 321.968 337.533 322.1 338.236 322.158L338.675 324.18C332.494 324.736 328.875 325.029 327.821 325.059C327.821 326.348 327.792 328.311 327.733 330.947C327.704 333.555 327.689 335.474 327.689 336.704C334.398 337.319 338.617 337.759 340.345 338.022ZM339.159 344.131L337.884 341.846C339.496 340.762 340.873 339.517 342.015 338.11C343.158 336.675 344.051 335.254 344.696 333.848C345.34 332.412 345.853 330.786 346.234 328.97C346.615 327.153 346.849 325.483 346.937 323.96C347.054 322.407 347.113 320.62 347.113 318.599C347.113 317.544 347.142 315.918 347.201 313.721C347.289 311.494 347.333 309.795 347.333 308.623C348.182 308.477 349.486 308.403 351.244 308.403C351.976 308.403 353.089 308.433 354.583 308.491C356.078 308.521 357.206 308.535 357.967 308.535C359.374 308.535 360.663 308.477 361.834 308.359C362.186 310.322 362.362 313.398 362.362 317.588C362.362 318.701 362.347 320.459 362.318 322.861C362.289 325.234 362.274 327.036 362.274 328.267C362.274 333.071 362.479 337.026 362.889 340.132C362.625 341.04 362.127 341.494 361.395 341.494C360.868 341.494 360.355 341.274 359.857 340.835C359.359 340.425 359.051 339.912 358.934 339.297C358.993 337.012 359.022 335.269 359.022 334.067C359.022 332.368 358.978 329.702 358.89 326.069C358.832 322.437 358.802 319.624 358.802 317.632C358.802 314.937 358.832 312.93 358.89 311.611C358.187 311.553 356.971 311.509 355.243 311.479C353.514 311.45 352.196 311.377 351.288 311.26C351.024 312.783 350.804 314.775 350.628 317.236C350.482 319.668 350.35 321.836 350.233 323.74C350.145 325.615 349.881 327.695 349.442 329.98C349.032 332.236 348.46 334.199 347.728 335.869C347.025 337.539 345.941 339.121 344.476 340.615C343.041 342.139 341.268 343.311 339.159 344.131ZM367.108 307.7L369.085 308.14C369.115 308.696 369.305 313.076 369.657 321.279C370.448 321.162 371.327 321.104 372.293 321.104C376.161 321.104 379.325 322.202 381.786 324.399C384.247 326.567 385.477 329.116 385.477 332.046C385.477 337.993 381.8 340.967 374.447 340.967C372.542 340.967 370.799 340.82 369.217 340.527C367.635 340.234 366.727 339.868 366.493 339.429C366.581 336.968 366.654 331.987 366.712 324.487C366.771 316.958 366.903 311.362 367.108 307.7ZM369.876 324.575C370.082 330.815 370.228 334.976 370.316 337.056C372.337 337.319 374.11 337.451 375.633 337.451C379.735 337.451 381.786 335.503 381.786 331.606C381.786 329.585 380.907 327.886 379.149 326.509C377.42 325.103 375.135 324.399 372.293 324.399C371.415 324.399 370.609 324.458 369.876 324.575ZM401.693 308.403L404.242 307.876C404.769 312.007 405.091 317.749 405.208 325.103C405.355 332.427 405.501 337.275 405.648 339.648C405.384 340.557 404.872 341.011 404.11 341.011C403.583 341.011 403.07 340.791 402.572 340.352C402.103 339.912 401.81 339.385 401.693 338.77C401.722 337.715 401.737 335.957 401.737 333.496V324.839C401.092 324.868 400.184 324.941 399.012 325.059C397.87 325.146 396.815 325.22 395.848 325.278C394.911 325.337 394.017 325.366 393.167 325.366C392.406 325.366 391.849 325.352 391.498 325.322C391.556 327.109 391.659 329.644 391.805 332.925C391.952 336.177 392.054 338.418 392.113 339.648C391.849 340.557 391.336 341.011 390.575 341.011C390.047 341.011 389.535 340.791 389.037 340.352C388.568 339.912 388.275 339.385 388.158 338.77C388.246 336.25 388.319 331.357 388.377 324.092C388.465 316.826 388.612 311.421 388.817 307.876L390.794 308.315C390.794 308.403 390.794 308.55 390.794 308.755C390.824 308.931 390.838 309.077 390.838 309.194C391.219 316.401 391.439 320.913 391.498 322.729C392.494 322.642 393.548 322.554 394.662 322.466C395.804 322.349 397.049 322.231 398.397 322.114C399.774 321.968 400.843 321.865 401.605 321.807C401.634 321.807 401.649 321.66 401.649 321.367C401.649 321.074 401.649 319.888 401.649 317.808C401.678 315.728 401.693 312.593 401.693 308.403ZM409.867 307.7L411.844 308.14C411.874 308.696 412.064 313.076 412.416 321.279C413.207 321.162 414.085 321.104 415.052 321.104C418.919 321.104 422.083 322.202 424.544 324.399C427.005 326.567 428.236 329.116 428.236 332.046C428.236 337.993 424.559 340.967 417.206 340.967C415.301 340.967 413.558 340.82 411.976 340.527C410.394 340.234 409.486 339.868 409.251 339.429C409.339 336.968 409.413 331.987 409.471 324.487C409.53 316.958 409.662 311.362 409.867 307.7ZM412.635 324.575C412.84 330.815 412.987 334.976 413.075 337.056C415.096 337.319 416.869 337.451 418.392 337.451C422.494 337.451 424.544 335.503 424.544 331.606C424.544 329.585 423.666 327.886 421.908 326.509C420.179 325.103 417.894 324.399 415.052 324.399C414.173 324.399 413.368 324.458 412.635 324.575ZM433.333 308.008L435.311 308.447C435.399 309.824 435.765 320.195 436.41 339.561C436.146 340.439 435.648 340.879 434.916 340.879C434.388 340.879 433.875 340.659 433.377 340.22C432.879 339.81 432.572 339.297 432.455 338.682C432.513 336.572 432.616 331.914 432.762 324.707C432.938 317.5 433.128 311.934 433.333 308.008ZM444.715 304.36L444.408 302.954C445.111 303.042 445.799 303.086 446.473 303.086C448.495 303.086 450.355 302.529 452.054 301.416C452.728 301.475 453.299 301.68 453.768 302.031C454.266 302.383 454.515 302.793 454.515 303.262C454.515 304.346 453.065 304.888 450.165 304.888C448.143 304.888 446.327 304.712 444.715 304.36ZM440.672 307.788L442.65 308.228C442.943 313.062 443.28 321.104 443.661 332.354C449.374 322.188 453.299 314.014 455.438 307.832C455.877 307.48 456.302 307.305 456.712 307.305C457.357 307.305 457.884 307.686 458.294 308.447C458.734 309.209 458.968 310.073 458.998 311.04C459.085 313.765 459.159 318.364 459.217 324.839C459.305 331.313 459.422 336.147 459.569 339.341C459.305 340.22 458.807 340.659 458.075 340.659C457.547 340.659 457.035 340.439 456.537 340C456.039 339.59 455.731 339.077 455.614 338.462C455.702 335.913 455.746 332.002 455.746 326.729C455.775 321.455 455.804 317.896 455.833 316.05C455.189 317.163 454.061 319.272 452.45 322.378C450.838 325.483 449.344 328.149 447.967 330.376C446.62 332.603 445.228 334.536 443.792 336.177L443.968 339.736C443.705 340.645 443.192 341.099 442.43 341.099C441.903 341.099 441.39 340.879 440.892 340.439C440.423 340 440.13 339.473 440.013 338.857C440.101 336.367 440.189 331.489 440.277 324.224C440.365 316.958 440.497 311.479 440.672 307.788ZM488.88 335.254C488.939 333.32 488.998 329.79 489.056 324.663C489.144 319.507 489.232 315.64 489.32 313.062H488.924C485.76 313.062 483.109 314.219 480.97 316.533C478.832 318.848 477.762 321.646 477.762 324.927C477.762 328.062 478.67 330.596 480.487 332.529C482.303 334.434 484.837 335.386 488.089 335.386C488.382 335.386 488.646 335.342 488.88 335.254ZM491.385 307.744L491.561 310.864C492.264 310.806 492.806 310.776 493.187 310.776C496.732 310.776 499.852 311.934 502.547 314.248C505.272 316.562 506.634 319.492 506.634 323.037C506.605 324.883 506.415 326.641 506.063 328.311C505.711 329.98 505.14 331.592 504.349 333.145C503.587 334.697 502.474 335.942 501.009 336.88C499.544 337.788 497.816 338.242 495.824 338.242C495.414 338.242 494.842 338.213 494.11 338.154C493.377 338.096 492.909 338.066 492.704 338.066V340.132C492.44 341.04 491.927 341.494 491.166 341.494C490.638 341.494 490.125 341.274 489.627 340.835C489.159 340.425 488.866 339.912 488.749 339.297L488.792 338.066C488.587 338.066 488.119 338.096 487.386 338.154C486.654 338.213 486.083 338.242 485.672 338.242C483.768 338.242 482.098 337.817 480.663 336.968C479.227 336.089 478.084 334.917 477.235 333.452C476.415 331.987 475.799 330.376 475.389 328.618C475.008 326.86 474.818 325 474.818 323.037C474.818 319.609 476.107 316.724 478.685 314.38C481.263 312.007 484.251 310.82 487.65 310.82C488.031 310.82 488.602 310.879 489.364 310.996C489.393 310.879 489.408 310.615 489.408 310.205C489.408 310.029 489.393 309.707 489.364 309.238C489.364 308.74 489.364 308.374 489.364 308.14C489.364 308.022 489.364 307.876 489.364 307.7C489.393 307.524 489.408 307.393 489.408 307.305L491.385 307.744ZM492.396 313.105H491.693C491.957 318.174 492.235 325.557 492.528 335.254H493.055C496.893 335.225 499.632 334.36 501.273 332.661C502.943 330.933 503.778 328.354 503.778 324.927C503.778 321.528 502.694 318.716 500.526 316.489C498.387 314.233 495.677 313.105 492.396 313.105ZM509.359 325.278C509.359 324.282 509.359 323.535 509.359 323.037C509.359 322.51 509.374 321.719 509.403 320.664C509.461 319.609 509.52 318.774 509.579 318.159C509.667 317.544 509.784 316.753 509.93 315.786C510.077 314.79 510.267 313.999 510.501 313.413C510.736 312.798 511 312.109 511.292 311.348C511.615 310.586 512.01 309.971 512.479 309.502C512.948 309.033 513.46 308.594 514.017 308.184C514.574 307.744 515.233 307.422 515.995 307.217C516.756 307.012 517.591 306.909 518.5 306.909C520.316 306.909 521.898 307.275 523.246 308.008C524.593 308.711 525.648 309.604 526.41 310.688C527.171 311.772 527.772 313.105 528.211 314.688C528.68 316.27 528.973 317.778 529.09 319.214C529.237 320.649 529.31 322.231 529.31 323.96C529.31 325.132 529.281 326.187 529.222 327.124C529.193 328.062 529.105 329.131 528.958 330.332C528.841 331.504 528.651 332.544 528.387 333.452C528.153 334.36 527.816 335.283 527.376 336.221C526.937 337.129 526.41 337.891 525.794 338.506C525.208 339.092 524.461 339.575 523.553 339.956C522.645 340.337 521.634 340.527 520.521 340.527C518.705 340.527 517.137 340.308 515.819 339.868C514.53 339.429 513.46 338.813 512.611 338.022C511.791 337.231 511.131 336.191 510.633 334.902C510.165 333.613 509.828 332.207 509.623 330.684C509.447 329.16 509.359 327.358 509.359 325.278ZM526.146 325.63C526.146 324.194 526.029 322.7 525.794 321.147C525.589 319.595 525.223 317.925 524.696 316.138C524.198 314.351 523.392 312.9 522.279 311.787C521.166 310.645 519.833 310.073 518.28 310.073C517.108 310.073 516.068 310.864 515.16 312.446C514.281 313.999 513.651 315.757 513.27 317.72C512.889 319.653 512.699 321.484 512.699 323.213C512.699 324.414 512.699 325.337 512.699 325.981C512.728 326.597 512.787 327.49 512.875 328.662C512.962 329.805 513.08 330.713 513.226 331.387C513.402 332.061 513.666 332.837 514.017 333.716C514.369 334.595 514.779 335.283 515.248 335.781C515.746 336.25 516.375 336.675 517.137 337.056C517.928 337.407 518.807 337.598 519.774 337.627C521.913 337.51 523.509 336.309 524.564 334.023C525.619 331.738 526.146 328.94 526.146 325.63ZM546.405 308.403L548.954 307.876C549.481 312.007 549.803 317.749 549.92 325.103C550.067 332.427 550.213 337.275 550.36 339.648C550.096 340.557 549.583 341.011 548.822 341.011C548.294 341.011 547.782 340.791 547.284 340.352C546.815 339.912 546.522 339.385 546.405 338.77C546.434 337.715 546.449 335.957 546.449 333.496V324.839C545.804 324.868 544.896 324.941 543.724 325.059C542.582 325.146 541.527 325.22 540.56 325.278C539.623 325.337 538.729 325.366 537.879 325.366C537.118 325.366 536.561 325.352 536.209 325.322C536.268 327.109 536.371 329.644 536.517 332.925C536.664 336.177 536.766 338.418 536.825 339.648C536.561 340.557 536.048 341.011 535.287 341.011C534.759 341.011 534.247 340.791 533.749 340.352C533.28 339.912 532.987 339.385 532.87 338.77C532.958 336.25 533.031 331.357 533.089 324.092C533.177 316.826 533.324 311.421 533.529 307.876L535.506 308.315C535.506 308.403 535.506 308.55 535.506 308.755C535.536 308.931 535.55 309.077 535.55 309.194C535.931 316.401 536.151 320.913 536.209 322.729C537.206 322.642 538.26 322.554 539.374 322.466C540.516 322.349 541.761 322.231 543.109 322.114C544.486 321.968 545.555 321.865 546.317 321.807C546.346 321.807 546.361 321.66 546.361 321.367C546.361 321.074 546.361 319.888 546.361 317.808C546.39 315.728 546.405 312.593 546.405 308.403ZM575.848 345.625L573.871 345.186C573.607 342.959 573.153 341.143 572.508 339.736C570.077 339.561 567.645 339.473 565.213 339.473C563.133 339.473 560.042 339.561 555.941 339.736C555.765 340.352 555.428 342.49 554.93 346.152L553.041 345.977C552.455 342.842 552.162 340.146 552.162 337.891C552.162 337.773 552.162 337.568 552.162 337.275C552.191 336.982 552.206 336.763 552.206 336.616C552.235 336.616 552.718 336.616 553.656 336.616C554.593 336.587 555.077 336.572 555.106 336.572C555.868 335.02 556.483 333.35 556.952 331.562C557.45 329.746 557.787 327.812 557.962 325.762C558.138 323.682 558.255 321.865 558.314 320.312C558.373 318.73 558.402 316.724 558.402 314.292C558.402 311.86 558.417 310.044 558.446 308.843C560.497 308.696 565.067 308.623 572.157 308.623L573.124 336.177C573.592 336.235 574.076 336.279 574.574 336.309C575.072 336.338 575.555 336.367 576.024 336.396C575.936 337.012 575.892 337.773 575.892 338.682C575.892 339.15 575.907 339.883 575.936 340.879C575.965 341.904 575.98 342.666 575.98 343.164C575.98 344.16 575.936 344.98 575.848 345.625ZM558.622 336.309C559.413 336.309 560.599 336.338 562.181 336.396C563.763 336.426 564.935 336.44 565.697 336.44C566.81 336.44 567.967 336.396 569.168 336.309C569.227 334.463 569.256 331.577 569.256 327.651V318.906C569.256 315.42 569.286 312.827 569.344 311.128C568.524 311.069 567.909 311.04 567.499 311.04C566.825 311.04 565.843 311.084 564.554 311.172C563.294 311.26 562.445 311.318 562.005 311.348C561.917 312.666 561.815 314.746 561.698 317.588C561.581 320.4 561.463 322.583 561.346 324.136C561.229 325.688 560.936 327.622 560.467 329.937C560.028 332.222 559.413 334.346 558.622 336.309ZM107.681 363.729H119.335C119.733 366.85 119.977 371.188 120.065 376.744C120.176 382.278 120.287 385.941 120.397 387.734C120.198 388.421 119.811 388.764 119.235 388.764C118.837 388.764 118.45 388.598 118.073 388.266C117.719 387.934 117.498 387.535 117.409 387.07C117.409 385.277 117.354 381.636 117.243 376.146C117.132 370.635 117.077 367.281 117.077 366.086C116.59 366.086 115.793 366.119 114.687 366.186C113.602 366.252 112.728 366.285 112.063 366.285C111.001 366.285 110.182 366.263 109.606 366.219C109.606 366.285 109.684 369.528 109.839 375.947C110.016 382.367 110.127 386.296 110.171 387.734C109.972 388.421 109.584 388.764 109.009 388.764C108.61 388.764 108.223 388.598 107.847 388.266C107.493 387.934 107.271 387.535 107.183 387.07C107.249 385.167 107.304 381.47 107.349 375.98C107.415 370.491 107.526 366.407 107.681 363.729ZM123.153 376.877C123.153 376.124 123.153 375.56 123.153 375.184C123.153 374.785 123.164 374.188 123.187 373.391C123.231 372.594 123.275 371.963 123.319 371.498C123.386 371.033 123.474 370.436 123.585 369.705C123.696 368.952 123.84 368.355 124.017 367.912C124.194 367.447 124.393 366.927 124.614 366.352C124.858 365.776 125.157 365.311 125.511 364.957C125.865 364.603 126.252 364.271 126.673 363.961C127.093 363.629 127.591 363.385 128.167 363.23C128.743 363.076 129.373 362.998 130.06 362.998C131.432 362.998 132.627 363.275 133.646 363.828C134.664 364.359 135.461 365.035 136.036 365.854C136.612 366.673 137.065 367.68 137.397 368.875C137.752 370.07 137.973 371.21 138.062 372.295C138.172 373.38 138.228 374.575 138.228 375.881C138.228 376.766 138.205 377.563 138.161 378.271C138.139 378.98 138.073 379.788 137.962 380.695C137.873 381.581 137.729 382.367 137.53 383.053C137.353 383.739 137.099 384.436 136.767 385.145C136.435 385.831 136.036 386.406 135.571 386.871C135.129 387.314 134.564 387.679 133.878 387.967C133.192 388.255 132.428 388.398 131.587 388.398C130.215 388.398 129.03 388.232 128.034 387.9C127.06 387.568 126.252 387.104 125.61 386.506C124.991 385.908 124.493 385.122 124.116 384.148C123.762 383.174 123.507 382.112 123.353 380.961C123.22 379.81 123.153 378.449 123.153 376.877ZM135.837 377.143C135.837 376.058 135.748 374.929 135.571 373.756C135.416 372.583 135.14 371.321 134.741 369.971C134.365 368.62 133.756 367.525 132.915 366.684C132.074 365.82 131.067 365.389 129.894 365.389C129.008 365.389 128.222 365.986 127.536 367.182C126.872 368.355 126.396 369.683 126.108 371.166C125.821 372.627 125.677 374.01 125.677 375.316C125.677 376.224 125.677 376.921 125.677 377.408C125.699 377.873 125.743 378.548 125.81 379.434C125.876 380.297 125.965 380.983 126.075 381.492C126.208 382.001 126.407 382.588 126.673 383.252C126.938 383.916 127.248 384.436 127.603 384.812C127.979 385.167 128.455 385.488 129.03 385.775C129.628 386.041 130.292 386.185 131.022 386.207C132.638 386.118 133.845 385.211 134.642 383.484C135.438 381.758 135.837 379.644 135.837 377.143ZM163.993 388L161.47 388.232C160.252 380.596 158.935 374.055 157.519 368.609C156.788 370.336 155.98 372.771 155.095 375.914C154.231 379.035 153.634 381.061 153.302 381.99C153.257 381.99 153.18 382.001 153.069 382.023C152.981 382.023 152.903 382.023 152.837 382.023C152.527 382.023 152.018 381.99 151.31 381.924C150.601 381.857 150.147 381.824 149.948 381.824C149.926 381.182 149.362 379.046 148.255 375.416C147.148 371.764 146.484 369.428 146.263 368.41C145.864 371.996 144.315 378.526 141.614 388L139.556 387.801C139.866 385.388 140.629 381.592 141.847 376.412C143.064 371.232 143.784 367.226 144.005 364.393C144.403 364.348 144.724 364.326 144.968 364.326C145.189 364.326 146.008 364.415 147.425 364.592C147.735 364.636 148.177 365.643 148.753 367.613C149.351 369.561 149.948 371.708 150.546 374.055C151.144 376.401 151.52 377.785 151.675 378.205C152.295 376.678 153.036 374.199 153.899 370.768C154.785 367.337 155.405 365.156 155.759 364.227C156.113 364.249 157.231 364.348 159.112 364.525C159.688 366.761 160.241 369.174 160.772 371.764C161.326 374.354 161.912 377.298 162.532 380.596C163.174 383.894 163.661 386.362 163.993 388ZM165.388 376.877C165.388 376.124 165.388 375.56 165.388 375.184C165.388 374.785 165.399 374.188 165.421 373.391C165.465 372.594 165.509 371.963 165.554 371.498C165.62 371.033 165.709 370.436 165.819 369.705C165.93 368.952 166.074 368.355 166.251 367.912C166.428 367.447 166.627 366.927 166.849 366.352C167.092 365.776 167.391 365.311 167.745 364.957C168.099 364.603 168.487 364.271 168.907 363.961C169.328 363.629 169.826 363.385 170.401 363.23C170.977 363.076 171.608 362.998 172.294 362.998C173.666 362.998 174.862 363.275 175.88 363.828C176.898 364.359 177.695 365.035 178.271 365.854C178.846 366.673 179.3 367.68 179.632 368.875C179.986 370.07 180.207 371.21 180.296 372.295C180.407 373.38 180.462 374.575 180.462 375.881C180.462 376.766 180.44 377.563 180.396 378.271C180.373 378.98 180.307 379.788 180.196 380.695C180.108 381.581 179.964 382.367 179.765 383.053C179.588 383.739 179.333 384.436 179.001 385.145C178.669 385.831 178.271 386.406 177.806 386.871C177.363 387.314 176.799 387.679 176.112 387.967C175.426 388.255 174.662 388.398 173.821 388.398C172.449 388.398 171.265 388.232 170.269 387.9C169.295 387.568 168.487 387.104 167.845 386.506C167.225 385.908 166.727 385.122 166.351 384.148C165.996 383.174 165.742 382.112 165.587 380.961C165.454 379.81 165.388 378.449 165.388 376.877ZM178.071 377.143C178.071 376.058 177.983 374.929 177.806 373.756C177.651 372.583 177.374 371.321 176.976 369.971C176.599 368.62 175.991 367.525 175.149 366.684C174.308 365.82 173.301 365.389 172.128 365.389C171.243 365.389 170.457 365.986 169.771 367.182C169.106 368.355 168.631 369.683 168.343 371.166C168.055 372.627 167.911 374.01 167.911 375.316C167.911 376.224 167.911 376.921 167.911 377.408C167.933 377.873 167.978 378.548 168.044 379.434C168.11 380.297 168.199 380.983 168.31 381.492C168.442 382.001 168.642 382.588 168.907 383.252C169.173 383.916 169.483 384.436 169.837 384.812C170.213 385.167 170.689 385.488 171.265 385.775C171.862 386.041 172.526 386.185 173.257 386.207C174.873 386.118 176.079 385.211 176.876 383.484C177.673 381.758 178.071 379.644 178.071 377.143ZM204.069 392.449H202.542C202.431 392.051 202.177 390.568 201.778 388C199.454 388.243 194.927 388.365 188.198 388.365C185.476 388.365 183.793 388.332 183.151 388.266C183.218 385.875 183.328 381.802 183.483 376.047C183.638 370.292 183.749 366.219 183.815 363.828L185.31 364.16C185.376 366.484 185.465 370.181 185.575 375.25C185.708 380.297 185.808 383.927 185.874 386.141L191.12 385.908C191.209 383.473 191.353 379.721 191.552 374.652C191.751 369.583 191.884 365.997 191.95 363.895L193.444 364.227C193.511 366.529 193.599 370.148 193.71 375.084C193.843 380.02 193.942 383.573 194.009 385.742C195.669 385.587 197.407 385.51 199.222 385.51C199.31 383.119 199.454 379.423 199.653 374.42C199.875 369.395 200.019 365.809 200.085 363.662L201.579 363.994C201.557 366.407 201.546 369.428 201.546 373.059C201.546 375.759 201.579 379.533 201.646 384.381C201.646 384.492 201.646 384.669 201.646 384.912C201.668 385.133 201.679 385.299 201.679 385.41C201.944 385.41 202.398 385.432 203.04 385.477C203.682 385.499 204.202 385.51 204.601 385.51C204.601 385.598 204.545 386.55 204.435 388.365C204.346 390.18 204.224 391.542 204.069 392.449ZM207.124 363.662L208.618 363.994C208.84 367.646 209.094 373.723 209.382 382.223C213.698 374.542 216.664 368.366 218.28 363.695C218.612 363.43 218.933 363.297 219.243 363.297C219.73 363.297 220.129 363.585 220.438 364.16C220.771 364.736 220.948 365.389 220.97 366.119C221.036 368.178 221.091 371.653 221.136 376.545C221.202 381.437 221.291 385.089 221.401 387.502C221.202 388.166 220.826 388.498 220.272 388.498C219.874 388.498 219.487 388.332 219.11 388C218.734 387.69 218.502 387.303 218.413 386.838C218.479 384.912 218.513 381.957 218.513 377.973C218.535 373.988 218.557 371.299 218.579 369.904C218.092 370.745 217.24 372.339 216.022 374.686C214.805 377.032 213.676 379.046 212.636 380.729C211.618 382.411 210.566 383.872 209.481 385.111L209.614 387.801C209.415 388.487 209.028 388.83 208.452 388.83C208.054 388.83 207.666 388.664 207.29 388.332C206.936 388 206.715 387.602 206.626 387.137C206.692 385.255 206.759 381.57 206.825 376.08C206.892 370.59 206.991 366.451 207.124 363.662ZM245.507 363.729L245.108 365.422C243.979 365.51 242.507 365.599 240.692 365.688C238.877 365.776 237.405 365.854 236.276 365.92V373.424C237.405 373.114 238.435 372.959 239.364 372.959C241.821 372.959 243.78 373.778 245.241 375.416C246.702 377.032 247.433 379.09 247.433 381.592C247.433 382.986 246.879 384.204 245.772 385.244C244.666 386.262 243.371 387.004 241.888 387.469C240.427 387.911 238.944 388.133 237.438 388.133C235.601 388.133 234.328 387.801 233.62 387.137C233.687 385.233 233.753 381.525 233.819 376.014C233.886 370.502 233.996 366.407 234.151 363.729H245.507ZM236.31 374.918C236.31 374.94 236.31 375.195 236.31 375.682C236.31 376.169 236.299 377.165 236.276 378.67C236.276 380.175 236.276 382.189 236.276 384.713C236.94 385.465 237.793 385.842 238.833 385.842C240.205 385.842 241.534 385.277 242.817 384.148C244.101 382.997 244.743 381.769 244.743 380.463C244.743 378.736 244.134 377.342 242.917 376.279C241.722 375.195 240.228 374.652 238.435 374.652C237.837 374.652 237.129 374.741 236.31 374.918ZM262.108 386.506L262.44 388C261.577 388 260.006 388.033 257.726 388.1C255.468 388.188 253.83 388.232 252.812 388.232C251.174 388.232 250.056 388.155 249.458 388C249.679 385.565 249.812 381.492 249.856 375.781C249.901 370.07 250.045 366.086 250.288 363.828C251.041 363.895 253.033 363.95 256.265 363.994C259.519 364.038 261.644 364.138 262.64 364.293L263.005 365.787C262.009 365.964 260.017 366.174 257.028 366.418C254.04 366.661 252.468 366.794 252.313 366.816C252.336 367.326 252.38 368.366 252.446 369.938C252.535 371.509 252.59 372.804 252.612 373.822C253.365 373.911 254.737 374.044 256.729 374.221C258.722 374.376 259.983 374.475 260.515 374.52L260.847 376.047C256.176 376.467 253.442 376.689 252.646 376.711C252.646 377.685 252.623 379.168 252.579 381.16C252.557 383.13 252.546 384.58 252.546 385.51C257.615 385.975 260.802 386.307 262.108 386.506ZM264.897 367.215L263.868 366.119C266.237 364.548 268.395 363.762 270.343 363.762C272.025 363.762 273.386 364.37 274.427 365.588C275.467 366.783 275.987 368.266 275.987 370.037C275.987 372.251 275.235 373.811 273.729 374.719C274.836 374.896 275.666 375.56 276.22 376.711C276.773 377.84 277.05 379.19 277.05 380.762C277.05 383.152 276.541 385.001 275.522 386.307C274.504 387.613 272.811 388.266 270.442 388.266C268.849 388.266 267.343 387.911 265.927 387.203C264.532 386.495 263.547 385.477 262.972 384.148C263.082 384.06 263.16 383.971 263.204 383.883C263.248 383.794 263.282 383.728 263.304 383.684C263.326 383.639 263.381 383.584 263.47 383.518C263.58 383.429 263.746 383.329 263.968 383.219C264.942 384.104 266.026 384.824 267.222 385.377C268.417 385.908 269.546 386.174 270.608 386.174C271.804 386.174 272.756 385.786 273.464 385.012C274.194 384.215 274.56 382.997 274.56 381.359C274.56 379.677 274.084 378.316 273.132 377.275C272.18 376.235 270.774 375.715 268.915 375.715C268.649 375.715 268.185 375.737 267.521 375.781C267.498 375.648 267.443 375.405 267.354 375.051C267.288 374.697 267.2 374.132 267.089 373.357C267.332 373.335 267.775 373.313 268.417 373.291C269.059 373.247 269.513 373.214 269.778 373.191C270.044 373.147 270.42 373.081 270.907 372.992C271.416 372.882 271.782 372.738 272.003 372.561C272.246 372.383 272.501 372.162 272.767 371.896C273.054 371.609 273.254 371.243 273.364 370.801C273.475 370.358 273.53 369.838 273.53 369.24C273.53 368.156 273.165 367.37 272.435 366.883C271.726 366.374 270.774 366.119 269.579 366.119C267.985 366.119 266.425 366.484 264.897 367.215ZM296.274 392.25L294.78 391.918C294.581 390.236 294.238 388.863 293.751 387.801C291.914 387.668 290.076 387.602 288.239 387.602C286.668 387.602 284.332 387.668 281.233 387.801C281.101 388.266 280.846 389.882 280.47 392.648L279.042 392.516C278.599 390.147 278.378 388.111 278.378 386.406C278.378 386.318 278.378 386.163 278.378 385.941C278.4 385.72 278.411 385.554 278.411 385.443C278.433 385.443 278.799 385.443 279.507 385.443C280.215 385.421 280.58 385.41 280.603 385.41C281.178 384.237 281.643 382.975 281.997 381.625C282.373 380.253 282.628 378.792 282.761 377.242C282.894 375.671 282.982 374.298 283.026 373.125C283.071 371.93 283.093 370.413 283.093 368.576C283.093 366.739 283.104 365.367 283.126 364.459C284.675 364.348 288.129 364.293 293.485 364.293L294.216 385.111C294.57 385.156 294.935 385.189 295.312 385.211C295.688 385.233 296.053 385.255 296.407 385.277C296.341 385.742 296.308 386.318 296.308 387.004C296.308 387.358 296.319 387.911 296.341 388.664C296.363 389.439 296.374 390.014 296.374 390.391C296.374 391.143 296.341 391.763 296.274 392.25ZM283.259 385.211C283.856 385.211 284.753 385.233 285.948 385.277C287.144 385.299 288.029 385.311 288.604 385.311C289.446 385.311 290.32 385.277 291.228 385.211C291.272 383.816 291.294 381.636 291.294 378.67V372.062C291.294 369.428 291.316 367.469 291.36 366.186C290.741 366.141 290.276 366.119 289.966 366.119C289.457 366.119 288.715 366.152 287.741 366.219C286.789 366.285 286.147 366.329 285.815 366.352C285.749 367.348 285.672 368.919 285.583 371.066C285.494 373.191 285.406 374.84 285.317 376.014C285.229 377.187 285.007 378.648 284.653 380.396C284.321 382.123 283.856 383.728 283.259 385.211ZM296.938 376.877C296.938 376.124 296.938 375.56 296.938 375.184C296.938 374.785 296.95 374.188 296.972 373.391C297.016 372.594 297.06 371.963 297.104 371.498C297.171 371.033 297.259 370.436 297.37 369.705C297.481 368.952 297.625 368.355 297.802 367.912C297.979 367.447 298.178 366.927 298.399 366.352C298.643 365.776 298.942 365.311 299.296 364.957C299.65 364.603 300.037 364.271 300.458 363.961C300.879 363.629 301.377 363.385 301.952 363.23C302.528 363.076 303.159 362.998 303.845 362.998C305.217 362.998 306.412 363.275 307.431 363.828C308.449 364.359 309.246 365.035 309.821 365.854C310.397 366.673 310.851 367.68 311.183 368.875C311.537 370.07 311.758 371.21 311.847 372.295C311.957 373.38 312.013 374.575 312.013 375.881C312.013 376.766 311.991 377.563 311.946 378.271C311.924 378.98 311.858 379.788 311.747 380.695C311.659 381.581 311.515 382.367 311.315 383.053C311.138 383.739 310.884 384.436 310.552 385.145C310.22 385.831 309.821 386.406 309.356 386.871C308.914 387.314 308.349 387.679 307.663 387.967C306.977 388.255 306.213 388.398 305.372 388.398C304 388.398 302.815 388.232 301.819 387.9C300.845 387.568 300.037 387.104 299.396 386.506C298.776 385.908 298.278 385.122 297.901 384.148C297.547 383.174 297.293 382.112 297.138 380.961C297.005 379.81 296.938 378.449 296.938 376.877ZM309.622 377.143C309.622 376.058 309.534 374.929 309.356 373.756C309.201 372.583 308.925 371.321 308.526 369.971C308.15 368.62 307.541 367.525 306.7 366.684C305.859 365.82 304.852 365.389 303.679 365.389C302.793 365.389 302.007 365.986 301.321 367.182C300.657 368.355 300.181 369.683 299.894 371.166C299.606 372.627 299.462 374.01 299.462 375.316C299.462 376.224 299.462 376.921 299.462 377.408C299.484 377.873 299.528 378.548 299.595 379.434C299.661 380.297 299.75 380.983 299.86 381.492C299.993 382.001 300.192 382.588 300.458 383.252C300.724 383.916 301.034 384.436 301.388 384.812C301.764 385.167 302.24 385.488 302.815 385.775C303.413 386.041 304.077 386.185 304.808 386.207C306.424 386.118 307.63 385.211 308.427 383.484C309.224 381.758 309.622 379.644 309.622 377.143ZM337.778 388L335.255 388.232C334.037 380.596 332.72 374.055 331.304 368.609C330.573 370.336 329.765 372.771 328.88 375.914C328.017 379.035 327.419 381.061 327.087 381.99C327.043 381.99 326.965 382.001 326.854 382.023C326.766 382.023 326.688 382.023 326.622 382.023C326.312 382.023 325.803 381.99 325.095 381.924C324.386 381.857 323.933 381.824 323.733 381.824C323.711 381.182 323.147 379.046 322.04 375.416C320.933 371.764 320.269 369.428 320.048 368.41C319.649 371.996 318.1 378.526 315.399 388L313.341 387.801C313.651 385.388 314.414 381.592 315.632 376.412C316.849 371.232 317.569 367.226 317.79 364.393C318.188 364.348 318.509 364.326 318.753 364.326C318.974 364.326 319.793 364.415 321.21 364.592C321.52 364.636 321.963 365.643 322.538 367.613C323.136 369.561 323.733 371.708 324.331 374.055C324.929 376.401 325.305 377.785 325.46 378.205C326.08 376.678 326.821 374.199 327.685 370.768C328.57 367.337 329.19 365.156 329.544 364.227C329.898 364.249 331.016 364.348 332.897 364.525C333.473 366.761 334.026 369.174 334.558 371.764C335.111 374.354 335.698 377.298 336.317 380.596C336.959 383.894 337.446 386.362 337.778 388ZM349.366 364.127L351.292 363.729C351.69 366.85 351.934 371.188 352.022 376.744C352.133 382.278 352.244 385.941 352.354 387.734C352.155 388.421 351.768 388.764 351.192 388.764C350.794 388.764 350.407 388.598 350.03 388.266C349.676 387.934 349.455 387.535 349.366 387.07C349.388 386.273 349.399 384.945 349.399 383.086V376.545C348.912 376.567 348.226 376.622 347.341 376.711C346.478 376.777 345.681 376.833 344.95 376.877C344.242 376.921 343.567 376.943 342.925 376.943C342.349 376.943 341.929 376.932 341.663 376.91C341.707 378.26 341.785 380.175 341.896 382.654C342.006 385.111 342.084 386.805 342.128 387.734C341.929 388.421 341.541 388.764 340.966 388.764C340.567 388.764 340.18 388.598 339.804 388.266C339.45 387.934 339.228 387.535 339.14 387.07C339.206 385.167 339.261 381.47 339.306 375.98C339.372 370.491 339.483 366.407 339.638 363.729L341.132 364.061C341.132 364.127 341.132 364.238 341.132 364.393C341.154 364.525 341.165 364.636 341.165 364.725C341.453 370.17 341.619 373.579 341.663 374.951C342.416 374.885 343.213 374.818 344.054 374.752C344.917 374.663 345.858 374.575 346.876 374.486C347.916 374.376 348.724 374.298 349.3 374.254C349.322 374.254 349.333 374.143 349.333 373.922C349.333 373.701 349.333 372.804 349.333 371.232C349.355 369.661 349.366 367.292 349.366 364.127ZM355.542 363.596L357.036 363.928C357.058 364.348 357.202 367.658 357.468 373.855C358.065 373.767 358.729 373.723 359.46 373.723C362.382 373.723 364.772 374.553 366.632 376.213C368.491 377.851 369.421 379.777 369.421 381.99C369.421 386.484 366.643 388.73 361.087 388.73C359.648 388.73 358.331 388.62 357.136 388.398C355.94 388.177 355.254 387.9 355.077 387.568C355.144 385.709 355.199 381.946 355.243 376.279C355.287 370.59 355.387 366.363 355.542 363.596ZM357.634 376.346C357.789 381.061 357.899 384.204 357.966 385.775C359.493 385.975 360.832 386.074 361.983 386.074C365.082 386.074 366.632 384.602 366.632 381.658C366.632 380.131 365.968 378.847 364.64 377.807C363.334 376.744 361.607 376.213 359.46 376.213C358.796 376.213 358.187 376.257 357.634 376.346ZM373.272 363.828L374.767 364.16C374.833 365.201 375.11 373.036 375.597 387.668C375.397 388.332 375.021 388.664 374.468 388.664C374.069 388.664 373.682 388.498 373.306 388.166C372.929 387.856 372.697 387.469 372.608 387.004C372.653 385.41 372.73 381.891 372.841 376.445C372.974 371 373.118 366.794 373.272 363.828ZM401.396 388L398.872 388.232C397.655 380.596 396.338 374.055 394.921 368.609C394.19 370.336 393.382 372.771 392.497 375.914C391.634 379.035 391.036 381.061 390.704 381.99C390.66 381.99 390.582 382.001 390.472 382.023C390.383 382.023 390.306 382.023 390.239 382.023C389.929 382.023 389.42 381.99 388.712 381.924C388.004 381.857 387.55 381.824 387.351 381.824C387.328 381.182 386.764 379.046 385.657 375.416C384.55 371.764 383.886 369.428 383.665 368.41C383.267 371.996 381.717 378.526 379.017 388L376.958 387.801C377.268 385.388 378.032 381.592 379.249 376.412C380.466 371.232 381.186 367.226 381.407 364.393C381.806 364.348 382.127 364.326 382.37 364.326C382.591 364.326 383.41 364.415 384.827 364.592C385.137 364.636 385.58 365.643 386.155 367.613C386.753 369.561 387.351 371.708 387.948 374.055C388.546 376.401 388.922 377.785 389.077 378.205C389.697 376.678 390.438 374.199 391.302 370.768C392.187 367.337 392.807 365.156 393.161 364.227C393.515 364.249 394.633 364.348 396.515 364.525C397.09 366.761 397.644 369.174 398.175 371.764C398.728 374.354 399.315 377.298 399.935 380.596C400.576 383.894 401.063 386.362 401.396 388ZM423.575 377.807C422.712 377.807 421.97 378.083 421.351 378.637C420.731 379.168 420.255 379.843 419.923 380.662C419.613 381.481 419.27 382.367 418.894 383.318C418.539 384.27 418.174 385.156 417.798 385.975C417.444 386.794 416.901 387.469 416.171 388C415.463 388.553 414.599 388.83 413.581 388.83C412.519 388.83 411.401 388.653 410.228 388.299L410.327 387.037C411.39 387.303 412.242 387.436 412.884 387.436C413.57 387.436 414.157 387.17 414.644 386.639C415.131 386.107 415.496 385.443 415.739 384.646C416.005 383.85 416.315 382.964 416.669 381.99C417.023 380.994 417.388 380.053 417.765 379.168C418.163 378.283 418.75 377.486 419.524 376.777C420.299 376.069 421.218 375.593 422.28 375.35C421.085 375.062 420.078 374.497 419.259 373.656C418.44 372.793 417.82 371.863 417.399 370.867C416.979 369.871 416.58 368.886 416.204 367.912C415.85 366.938 415.407 366.13 414.876 365.488C414.345 364.846 413.692 364.525 412.917 364.525C412.873 364.525 412.098 364.647 410.593 364.891L410.261 363.562C412.164 363.208 413.437 363.031 414.079 363.031C415.075 363.031 415.927 363.385 416.636 364.094C417.366 364.78 417.953 365.621 418.396 366.617C418.838 367.613 419.27 368.609 419.69 369.605C420.133 370.602 420.687 371.454 421.351 372.162C422.037 372.848 422.856 373.202 423.808 373.225L424.007 363.695L425.667 364.027C425.689 364.868 425.744 366.407 425.833 368.643C425.944 370.878 426.01 372.406 426.032 373.225C426.984 373.202 427.792 372.848 428.456 372.162C429.142 371.454 429.696 370.602 430.116 369.605C430.559 368.609 431.002 367.613 431.444 366.617C431.887 365.621 432.463 364.78 433.171 364.094C433.901 363.385 434.765 363.031 435.761 363.031C436.403 363.031 437.675 363.208 439.579 363.562L439.247 364.891C437.742 364.647 436.956 364.525 436.89 364.525C436.115 364.525 435.462 364.846 434.931 365.488C434.399 366.13 433.957 366.938 433.603 367.912C433.248 368.886 432.861 369.871 432.44 370.867C432.02 371.863 431.4 372.793 430.581 373.656C429.762 374.497 428.755 375.062 427.56 375.35C428.622 375.593 429.541 376.069 430.315 376.777C431.09 377.486 431.666 378.283 432.042 379.168C432.418 380.053 432.784 380.994 433.138 381.99C433.492 382.964 433.802 383.85 434.067 384.646C434.333 385.443 434.698 386.107 435.163 386.639C435.65 387.17 436.237 387.436 436.923 387.436C437.587 387.436 438.45 387.303 439.513 387.037L439.612 388.299C438.439 388.653 437.321 388.83 436.259 388.83C435.241 388.83 434.366 388.553 433.636 388C432.927 387.469 432.385 386.794 432.009 385.975C431.655 385.156 431.289 384.27 430.913 383.318C430.559 382.367 430.216 381.481 429.884 380.662C429.574 379.843 429.109 379.168 428.489 378.637C427.869 378.083 427.128 377.807 426.265 377.807L426.464 387.801C426.265 388.487 425.877 388.83 425.302 388.83C424.903 388.83 424.516 388.664 424.14 388.332C423.785 388 423.564 387.602 423.476 387.137C423.52 386.406 423.553 383.296 423.575 377.807ZM440.774 363.662L442.269 363.994C442.49 367.646 442.744 373.723 443.032 382.223C447.349 374.542 450.315 368.366 451.931 363.695C452.263 363.43 452.584 363.297 452.894 363.297C453.381 363.297 453.779 363.585 454.089 364.16C454.421 364.736 454.598 365.389 454.62 366.119C454.687 368.178 454.742 371.653 454.786 376.545C454.853 381.437 454.941 385.089 455.052 387.502C454.853 388.166 454.476 388.498 453.923 388.498C453.524 388.498 453.137 388.332 452.761 388C452.384 387.69 452.152 387.303 452.063 386.838C452.13 384.912 452.163 381.957 452.163 377.973C452.185 373.988 452.207 371.299 452.229 369.904C451.743 370.745 450.89 372.339 449.673 374.686C448.455 377.032 447.326 379.046 446.286 380.729C445.268 382.411 444.216 383.872 443.132 385.111L443.265 387.801C443.065 388.487 442.678 388.83 442.103 388.83C441.704 388.83 441.317 388.664 440.94 388.332C440.586 388 440.365 387.602 440.276 387.137C440.343 385.255 440.409 381.57 440.476 376.08C440.542 370.59 440.642 366.451 440.774 363.662ZM457.774 387.137L457.94 363.762C458.184 362.943 459.136 362.533 460.796 362.533C462.323 362.533 463.729 362.743 465.013 363.164C466.297 363.562 467.37 364.249 468.233 365.223C469.119 366.174 469.562 367.326 469.562 368.676C469.562 369.738 469.296 370.768 468.765 371.764C468.256 372.76 467.625 373.402 466.872 373.689C468.289 373.889 469.429 374.741 470.292 376.246C471.155 377.751 471.587 379.533 471.587 381.592C471.587 382.986 471.034 384.204 469.927 385.244C468.82 386.262 467.525 387.004 466.042 387.469C464.581 387.911 463.098 388.133 461.593 388.133C459.756 388.133 458.483 387.801 457.774 387.137ZM460.497 375.516C460.497 377.043 460.475 380.109 460.431 384.713C461.095 385.465 461.947 385.842 462.987 385.842C464.36 385.842 465.688 385.277 466.972 384.148C468.256 382.997 468.897 381.769 468.897 380.463C468.897 378.847 468.355 377.585 467.271 376.678C466.186 375.77 464.791 375.316 463.087 375.316C461.958 375.316 461.095 375.383 460.497 375.516ZM460.431 373.059L462.489 373.025C463.906 373.025 464.991 372.616 465.743 371.797C466.518 370.956 466.905 369.96 466.905 368.809C466.905 367.635 466.518 366.628 465.743 365.787C464.968 364.924 463.895 364.492 462.522 364.492C461.903 364.492 461.172 364.625 460.331 364.891C460.375 366.241 460.397 367.912 460.397 369.904C460.42 371.896 460.431 372.948 460.431 373.059ZM474.31 376.877C474.31 376.124 474.31 375.56 474.31 375.184C474.31 374.785 474.321 374.188 474.343 373.391C474.387 372.594 474.431 371.963 474.476 371.498C474.542 371.033 474.631 370.436 474.741 369.705C474.852 368.952 474.996 368.355 475.173 367.912C475.35 367.447 475.549 366.927 475.771 366.352C476.014 365.776 476.313 365.311 476.667 364.957C477.021 364.603 477.409 364.271 477.829 363.961C478.25 363.629 478.748 363.385 479.323 363.23C479.899 363.076 480.53 362.998 481.216 362.998C482.588 362.998 483.784 363.275 484.802 363.828C485.82 364.359 486.617 365.035 487.192 365.854C487.768 366.673 488.222 367.68 488.554 368.875C488.908 370.07 489.129 371.21 489.218 372.295C489.328 373.38 489.384 374.575 489.384 375.881C489.384 376.766 489.362 377.563 489.317 378.271C489.295 378.98 489.229 379.788 489.118 380.695C489.03 381.581 488.886 382.367 488.687 383.053C488.509 383.739 488.255 384.436 487.923 385.145C487.591 385.831 487.192 386.406 486.728 386.871C486.285 387.314 485.72 387.679 485.034 387.967C484.348 388.255 483.584 388.398 482.743 388.398C481.371 388.398 480.187 388.232 479.19 387.9C478.216 387.568 477.409 387.104 476.767 386.506C476.147 385.908 475.649 385.122 475.272 384.148C474.918 383.174 474.664 382.112 474.509 380.961C474.376 379.81 474.31 378.449 474.31 376.877ZM486.993 377.143C486.993 376.058 486.905 374.929 486.728 373.756C486.573 372.583 486.296 371.321 485.897 369.971C485.521 368.62 484.912 367.525 484.071 366.684C483.23 365.82 482.223 365.389 481.05 365.389C480.164 365.389 479.379 365.986 478.692 367.182C478.028 368.355 477.552 369.683 477.265 371.166C476.977 372.627 476.833 374.01 476.833 375.316C476.833 376.224 476.833 376.921 476.833 377.408C476.855 377.873 476.899 378.548 476.966 379.434C477.032 380.297 477.121 380.983 477.231 381.492C477.364 382.001 477.563 382.588 477.829 383.252C478.095 383.916 478.405 384.436 478.759 384.812C479.135 385.167 479.611 385.488 480.187 385.775C480.784 386.041 481.448 386.185 482.179 386.207C483.795 386.118 485.001 385.211 485.798 383.484C486.595 381.758 486.993 379.644 486.993 377.143ZM489.251 365.721L488.919 364.227L501.603 363.496C502.156 363.518 502.621 363.717 502.997 364.094C503.373 364.47 503.562 364.88 503.562 365.322C503.562 365.61 503.451 365.865 503.229 366.086C503.008 366.307 502.676 366.44 502.233 366.484L496.655 366.186C497.209 373.999 497.618 381.105 497.884 387.502C497.685 388.166 497.308 388.498 496.755 388.498C496.356 388.498 495.969 388.332 495.593 388C495.216 387.69 494.984 387.303 494.896 386.838C494.94 385.643 494.962 383.827 494.962 381.393C494.962 380.485 494.951 379.124 494.929 377.309C494.929 375.493 494.929 374.132 494.929 373.225C494.929 370.59 494.973 368.211 495.062 366.086C492.56 365.909 490.623 365.787 489.251 365.721ZM515.149 364.127L517.075 363.729C517.474 366.85 517.717 371.188 517.806 376.744C517.916 382.278 518.027 385.941 518.138 387.734C517.938 388.421 517.551 388.764 516.976 388.764C516.577 388.764 516.19 388.598 515.813 388.266C515.459 387.934 515.238 387.535 515.149 387.07C515.172 386.273 515.183 384.945 515.183 383.086V376.545C514.696 376.567 514.009 376.622 513.124 376.711C512.261 376.777 511.464 376.833 510.733 376.877C510.025 376.921 509.35 376.943 508.708 376.943C508.132 376.943 507.712 376.932 507.446 376.91C507.491 378.26 507.568 380.175 507.679 382.654C507.789 385.111 507.867 386.805 507.911 387.734C507.712 388.421 507.325 388.764 506.749 388.764C506.351 388.764 505.963 388.598 505.587 388.266C505.233 387.934 505.011 387.535 504.923 387.07C504.989 385.167 505.045 381.47 505.089 375.98C505.155 370.491 505.266 366.407 505.421 363.729L506.915 364.061C506.915 364.127 506.915 364.238 506.915 364.393C506.937 364.525 506.948 364.636 506.948 364.725C507.236 370.17 507.402 373.579 507.446 374.951C508.199 374.885 508.996 374.818 509.837 374.752C510.7 374.663 511.641 374.575 512.659 374.486C513.7 374.376 514.507 374.298 515.083 374.254C515.105 374.254 515.116 374.143 515.116 373.922C515.116 373.701 515.116 372.804 515.116 371.232C515.138 369.661 515.149 367.292 515.149 364.127ZM521.325 363.596L522.819 363.928C522.841 364.348 522.985 367.658 523.251 373.855C523.849 373.767 524.513 373.723 525.243 373.723C528.165 373.723 530.556 374.553 532.415 376.213C534.274 377.851 535.204 379.777 535.204 381.99C535.204 386.484 532.426 388.73 526.87 388.73C525.431 388.73 524.114 388.62 522.919 388.398C521.724 388.177 521.037 387.9 520.86 387.568C520.927 385.709 520.982 381.946 521.026 376.279C521.071 370.59 521.17 366.363 521.325 363.596ZM523.417 376.346C523.572 381.061 523.683 384.204 523.749 385.775C525.276 385.975 526.616 386.074 527.767 386.074C530.866 386.074 532.415 384.602 532.415 381.658C532.415 380.131 531.751 378.847 530.423 377.807C529.117 376.744 527.39 376.213 525.243 376.213C524.579 376.213 523.97 376.257 523.417 376.346ZM539.056 363.828L540.55 364.16C540.616 365.201 540.893 373.036 541.38 387.668C541.181 388.332 540.804 388.664 540.251 388.664C539.853 388.664 539.465 388.498 539.089 388.166C538.713 387.856 538.48 387.469 538.392 387.004C538.436 385.41 538.513 381.891 538.624 376.445C538.757 371 538.901 366.794 539.056 363.828ZM567.179 388L564.655 388.232C563.438 380.596 562.121 374.055 560.704 368.609C559.974 370.336 559.166 372.771 558.28 375.914C557.417 379.035 556.819 381.061 556.487 381.99C556.443 381.99 556.366 382.001 556.255 382.023C556.166 382.023 556.089 382.023 556.022 382.023C555.713 382.023 555.203 381.99 554.495 381.924C553.787 381.857 553.333 381.824 553.134 381.824C553.112 381.182 552.547 379.046 551.44 375.416C550.334 371.764 549.67 369.428 549.448 368.41C549.05 371.996 547.5 378.526 544.8 388L542.741 387.801C543.051 385.388 543.815 381.592 545.032 376.412C546.25 371.232 546.969 367.226 547.19 364.393C547.589 364.348 547.91 364.326 548.153 364.326C548.375 364.326 549.194 364.415 550.61 364.592C550.92 364.636 551.363 365.643 551.938 367.613C552.536 369.561 553.134 371.708 553.731 374.055C554.329 376.401 554.705 377.785 554.86 378.205C555.48 376.678 556.222 374.199 557.085 370.768C557.97 367.337 558.59 365.156 558.944 364.227C559.299 364.249 560.416 364.348 562.298 364.525C562.873 366.761 563.427 369.174 563.958 371.764C564.511 374.354 565.098 377.298 565.718 380.596C566.36 383.894 566.847 386.362 567.179 388Z" fill="white"/>
</svg>
