<?xml version="1.0" standalone="no"?>
<!DOCTYPE svg PUBLIC "-//W3C//DTD SVG 20010904//EN"
 "http://www.w3.org/TR/2001/REC-SVG-20010904/DTD/svg10.dtd">
<svg version="1.0" xmlns="http://www.w3.org/2000/svg"
 width="567.000000pt" height="715.000000pt" viewBox="0 0 567.000000 715.000000"
 preserveAspectRatio="xMidYMid meet">
<metadata>
Created by potrace 1.15, written by Peter Selinger 2001-2017
</metadata>
<g transform="translate(0.000000,715.000000) scale(0.100000,-0.100000)"
fill="#000000" stroke="none">
<path d="M1628 7133 c-28 -33 -32 -48 -45 -143 -13 -101 -34 -216 -53 -290 -7
-25 -13 -134 -15 -245 -3 -235 -15 -335 -48 -384 -24 -36 -40 -71 -70 -146
-64 -162 -51 -494 24 -637 13 -26 11 -58 -5 -64 -37 -14 -28 -49 29 -111 20
-21 51 -61 70 -89 18 -28 41 -56 49 -63 9 -8 16 -19 16 -25 1 -6 14 -27 30
-46 34 -39 35 -45 16 -114 -8 -28 -22 -80 -31 -116 -9 -36 -21 -81 -26 -100
-5 -19 -13 -60 -19 -90 -5 -30 -13 -75 -19 -100 -14 -64 -55 -317 -81 -500
-15 -110 -31 -368 -30 -500 0 -67 -6 -149 -15 -195 -9 -44 -20 -116 -25 -160
-5 -44 -14 -96 -20 -115 -19 -64 -32 -302 -33 -580 -1 -280 11 -430 39 -503
21 -55 19 -62 -34 -120 -106 -117 -204 -264 -234 -352 -23 -65 -25 -207 -3
-225 8 -7 15 -18 15 -25 0 -17 92 -77 153 -99 46 -17 60 -17 192 -4 l30 3 0
-115 c0 -147 21 -199 98 -250 75 -49 135 -60 358 -62 226 -3 250 3 295 80 24
40 25 51 23 155 -1 62 -3 148 -3 192 l-1 80 27 -2 c15 -1 42 -9 60 -17 110
-51 466 -51 616 0 73 24 75 20 68 -102 -4 -58 -11 -117 -17 -130 -15 -42 -2
-142 26 -199 40 -79 80 -95 226 -94 292 1 385 22 459 101 49 54 63 97 69 213
l6 100 77 1 c72 2 158 26 158 45 0 4 8 10 19 14 32 10 100 87 117 132 28 73
15 180 -34 275 -37 70 -71 124 -97 154 -5 6 -46 51 -90 99 -44 48 -80 91 -79
94 0 3 3 17 6 31 57 232 68 636 27 975 -6 50 -14 124 -18 166 -4 42 -12 82
-17 90 -5 8 -12 154 -15 324 -6 299 -13 389 -44 615 -40 289 -48 339 -61 386
-8 28 -14 63 -14 79 0 26 -5 48 -46 189 -8 26 -14 61 -14 77 0 15 -4 30 -9 33
-5 3 -12 31 -16 61 -7 57 0 76 41 123 70 79 203 302 235 392 21 59 23 80 21
239 -2 172 -2 175 -27 201 -21 22 -25 36 -25 87 0 50 -4 67 -24 90 -13 16 -31
52 -39 80 -9 28 -21 62 -28 74 -6 12 -13 52 -16 88 -7 119 -31 325 -41 358 -6
18 -11 119 -12 224 -1 246 -18 306 -97 348 -29 15 -118 14 -145 -1 -108 -61
-255 -219 -408 -437 -19 -28 -41 -53 -48 -56 -8 -3 -68 0 -134 6 -103 9 -479
7 -557 -3 -24 -3 -31 5 -51 59 -13 36 -41 47 -67 27 -29 -22 -51 -16 -69 19
-9 17 -22 39 -29 47 -7 8 -27 44 -46 80 -19 36 -39 71 -46 78 -7 7 -13 18 -13
24 0 20 -99 133 -158 180 -40 32 -61 38 -140 38 -63 0 -82 -4 -94 -17z m125
-69 c58 -30 96 -65 152 -139 30 -41 55 -77 55 -80 0 -4 27 -52 60 -107 33 -54
60 -102 61 -106 0 -4 15 -27 33 -52 22 -31 41 -46 59 -48 16 -2 36 -16 49 -33
21 -28 51 -38 62 -21 29 47 640 48 762 2 25 -10 13 -24 219 255 56 76 195 222
235 247 104 65 135 7 132 -244 -1 -98 4 -157 23 -260 18 -95 25 -168 25 -256
0 -111 3 -129 26 -179 24 -54 39 -109 53 -203 4 -25 13 -56 21 -70 7 -14 15
-47 17 -75 2 -32 13 -63 29 -86 23 -34 25 -46 26 -150 1 -109 -9 -164 -41
-226 -5 -10 -29 -61 -55 -113 -42 -88 -135 -237 -202 -325 -24 -32 -26 -38
-12 -46 9 -5 23 -39 33 -76 9 -38 21 -86 27 -107 5 -21 13 -60 18 -85 5 -25
18 -95 30 -156 73 -379 118 -829 107 -1072 -8 -161 -24 -334 -37 -393 -5 -25
-16 -103 -24 -175 -8 -71 -22 -188 -30 -260 -9 -71 -18 -170 -22 -220 -3 -49
-8 -103 -10 -120 -10 -71 -19 -325 -19 -515 0 -226 8 -356 25 -422 6 -23 18
-65 25 -93 40 -151 45 -217 19 -296 -11 -34 -28 -58 -51 -76 -47 -36 -64 -24
-79 58 -15 79 -63 221 -78 231 -14 10 -28 10 -44 -1 -11 -7 -10 -17 4 -60 9
-28 20 -54 25 -57 5 -3 9 -18 9 -33 0 -16 7 -45 16 -66 8 -20 14 -56 12 -78
l-3 -42 -67 -3 -67 -3 -19 68 c-11 37 -23 88 -26 113 -9 60 -29 90 -57 83 -23
-6 -24 -2 6 -161 9 -52 14 -97 10 -100 -4 -4 -32 -6 -63 -5 -44 2 -61 7 -80
26 -23 23 -24 30 -23 152 1 70 3 131 6 135 2 4 7 112 10 241 9 398 -22 910
-69 1119 -35 154 -57 200 -96 200 -48 0 -65 -45 -37 -93 29 -48 62 -207 78
-379 17 -183 19 -209 25 -530 l7 -306 -41 -21 c-23 -12 -49 -21 -58 -21 -9 0
-37 -7 -63 -15 -85 -26 -221 -37 -312 -25 -88 12 -171 32 -227 56 -18 8 -38
14 -44 14 -7 0 -22 10 -35 22 -23 21 -23 23 -23 257 1 251 30 698 54 816 14
70 26 110 48 153 9 17 8 28 -2 47 -34 64 -105 0 -126 -115 -3 -14 -9 -43 -15
-65 -40 -166 -65 -953 -39 -1240 6 -71 14 -175 17 -230 5 -92 3 -102 -16 -127
-36 -45 -127 -62 -159 -30 -16 16 -17 27 -8 115 10 101 4 126 -27 114 -16 -6
-47 -124 -47 -180 0 -49 -16 -58 -86 -49 l-59 7 1 40 c2 49 20 133 35 161 31
59 -21 101 -53 43 -10 -17 -18 -38 -18 -47 0 -9 -7 -37 -15 -62 -8 -25 -17
-61 -20 -81 l-6 -37 -35 11 c-25 8 -41 21 -53 46 -37 73 -33 159 12 331 35
133 47 257 47 487 0 250 -26 634 -62 903 -6 47 -15 126 -19 175 -4 50 -13 122
-19 160 -39 255 -43 303 -42 571 0 159 5 297 12 335 7 35 15 105 20 154 4 50
13 122 19 160 7 39 19 113 27 165 8 52 20 113 26 135 6 22 14 63 19 90 15 86
35 179 43 196 4 10 10 39 14 65 6 41 11 50 30 52 13 2 25 -3 28 -12 3 -9 12
-16 20 -16 13 0 9 28 -6 40 -12 10 -115 168 -182 278 -65 109 -79 142 -58 142
16 0 23 49 10 65 -7 8 -16 29 -21 47 -4 18 -20 76 -35 128 -24 83 -27 114 -28
245 -1 122 2 160 18 205 20 60 74 176 92 200 27 34 44 185 44 379 0 185 8 257
40 366 5 17 16 81 25 144 13 100 26 141 42 141 2 0 18 -7 36 -16z m-283 -4339
c6 -28 13 -70 16 -95 2 -25 11 -103 19 -175 54 -476 73 -862 55 -1089 -7 -98
-19 -180 -30 -211 l-17 -49 -74 -19 c-41 -10 -87 -15 -104 -12 -47 9 -118 46
-142 74 -44 51 -25 152 49 265 21 32 38 61 38 65 0 4 12 20 28 37 29 32 147
169 169 195 11 13 11 24 0 65 -32 116 -40 156 -53 274 -22 201 -19 369 12 689
7 62 19 57 34 -14z m2354 -372 c1 -245 -2 -317 -17 -408 -10 -60 -23 -118 -28
-128 -5 -9 -12 -37 -16 -62 -5 -42 -4 -46 37 -82 94 -83 198 -215 244 -308 25
-51 46 -106 46 -123 0 -39 -31 -106 -61 -133 -79 -70 -130 -82 -218 -53 -43
14 -49 19 -64 62 -8 26 -19 74 -22 107 -4 32 -9 68 -12 80 -5 21 -4 496 1 580
17 257 52 622 66 680 5 22 12 55 16 73 4 24 9 31 17 23 7 -7 10 -113 11 -308z"/>
<path d="M2185 5750 c-11 -4 -33 -22 -50 -40 -24 -25 -30 -40 -29 -74 1 -52
37 -116 64 -116 10 0 22 -4 25 -10 10 -17 68 -11 103 10 88 54 78 194 -16 231
-28 11 -70 11 -97 -1z"/>
<path d="M2955 5751 c-11 -5 -32 -21 -47 -36 -23 -23 -28 -37 -28 -78 0 -67
32 -109 94 -127 39 -11 49 -10 82 6 52 26 77 63 76 112 -1 76 -39 121 -110
127 -26 3 -56 1 -67 -4z"/>
<path d="M2471 5141 c-57 -23 -74 -46 -66 -91 10 -53 57 -103 125 -134 45 -20
60 -32 60 -48 0 -35 -32 -88 -63 -105 -28 -14 -35 -14 -91 3 -34 10 -78 28
-98 41 -44 27 -73 29 -82 7 -9 -23 18 -50 73 -75 25 -12 57 -27 70 -33 13 -6
52 -11 85 -11 48 1 70 6 102 27 l41 26 26 -26 c35 -35 136 -43 200 -17 119 48
154 76 141 109 -9 23 -24 20 -116 -24 -56 -27 -97 -40 -125 -40 -37 0 -44 4
-63 35 -37 61 -27 114 23 115 42 0 136 88 139 130 4 66 -14 91 -83 115 -61 22
-241 19 -298 -4z"/>
</g>
</svg>
