<svg width="275" height="179" viewBox="0 0 275 179" fill="none" xmlns="http://www.w3.org/2000/svg">
<g clip-path="url(#clip0)">
<rect width="275" height="179" fill="white"/>
<rect width="275" height="179" fill="white"/>
<path d="M185.698 4.50001C183.598 6.90001 178.698 13.3 174.998 18.6C171.198 23.9 167.498 28.8 166.698 29.6C164.298 32 164.113 33 168.298 34.3C169.358 34.3 176.66 36.4098 179.613 38C186.113 41.5 187.929 43.5 189.113 44.5C190.113 45.3441 191.498 44.9 191.498 43.5C191.498 42.1 191.798 42.1 194.198 44C199.882 48.5 198.998 45 195.698 38.3C192.398 31.9 190.613 30.5 188.498 30.5C187.698 31 187.798 31.6 188.598 32.7C190.613 35 189.598 34.3 188.498 35C187.698 35.5 187.398 36.8 187.798 38.8L188.398 41.7L181.113 36.5C175.613 33.2 170.198 32.4 169.898 31.6C169.498 30.6 172.198 26 177.098 19.3C188.198 4.10001 190.398 1.70001 192.098 3.10001C193.898 4.50001 196.098 12 197.998 22.9C199.398 31.2 199.998 32.8 201.098 31.8C201.798 31 198.798 13.6 196.998 8.10001C195.398 3.30001 192.898 1.4573e-05 190.898 1.4573e-05C190.198 1.4573e-05 187.898 2.00001 185.698 4.50001Z" fill="black"/>
<path d="M87.5039 4.50001C89.6039 6.90001 94.5039 13.3 98.2039 18.6C102.004 23.9 105.704 28.8 106.504 29.6C108.904 32 109.089 33 104.904 34.3C103.844 34.3 96.5418 36.4098 93.5886 38C87.0886 41.5 85.2733 43.5 84.0886 44.5C83.0886 45.3441 81.7039 44.9 81.7039 43.5C81.7039 42.1 81.4039 42.1 79.0039 44C73.3197 48.5 74.2039 45 77.5039 38.3C80.8039 31.9 82.5886 30.5 84.7039 30.5C85.5039 31 85.4039 31.6 84.6039 32.7C82.5886 35 83.6039 34.3 84.7039 35C85.5039 35.5 85.8039 36.8 85.4039 38.8L84.8039 41.7L92.0886 36.5C97.5886 33.2 103.004 32.4 103.304 31.6C103.704 30.6 101.004 26 96.1039 19.3C85.0039 4.10001 82.8039 1.70001 81.1039 3.10001C79.3039 4.50001 77.1039 12 75.2039 22.9C73.8039 31.2 73.2039 32.8 72.1039 31.8C71.4039 31 74.4039 13.6 76.2039 8.10001C77.8039 3.30001 80.3039 1.4573e-05 82.3039 1.4573e-05C83.0039 1.4573e-05 85.3039 2.00001 87.5039 4.50001Z" fill="black"/>
<path d="M85.54 63.9961L83.7822 66.0176C81.4971 64.3184 79.2412 63.4688 77.0146 63.4688C75.5498 63.4688 74.29 63.8203 73.2354 64.5234C72.1807 65.2266 71.375 66.0762 70.8184 67.0723C70.291 68.0684 69.8662 69.3281 69.5439 70.8516C69.251 72.375 69.0605 73.6934 68.9727 74.8066C68.9141 75.9199 68.8848 77.2236 68.8848 78.7178C68.8848 80.1826 69.1484 81.8525 69.6758 83.7275C70.2324 85.5732 71.1553 87.3018 72.4443 88.9131C73.7334 90.5244 75.2275 91.3301 76.9268 91.3301C78.7725 91.3301 81.5996 90.3633 85.4082 88.4297C85.7891 88.9863 86.2871 89.9092 86.9023 91.1982C83.2109 93.7471 79.915 95.0215 77.0146 95.0215C75.1396 95.0215 73.4258 94.4502 71.873 93.3076C70.3203 92.165 69.0898 90.7148 68.1816 88.957C67.3027 87.1992 66.6143 85.3682 66.1162 83.4639C65.6475 81.5303 65.4131 79.6992 65.4131 77.9707C65.4131 76.0664 65.5596 74.2207 65.8525 72.4336C66.1455 70.6172 66.6436 68.8008 67.3467 66.9844C68.0498 65.168 69.1045 63.7031 70.5107 62.5898C71.9463 61.4766 73.6455 60.9199 75.6084 60.9199C77.3076 60.9199 79.0654 61.2129 80.8818 61.7988C82.6982 62.3848 84.251 63.1172 85.54 63.9961ZM98.416 69.665L100.218 69.0938C100.54 70.1777 100.848 74.25 101.141 81.3105C101.463 88.3418 101.683 92.1211 101.8 92.6484C101.536 93.5566 101.023 94.0107 100.262 94.0107C99.7344 94.0107 99.2217 93.791 98.7236 93.3516C98.2549 92.9121 97.9619 92.3848 97.8447 91.7695C97.9033 90.0996 97.9619 87.5654 98.0205 84.167C96.4971 84.5479 95.2373 84.7383 94.2412 84.7383C92.7178 84.7383 91.3994 84.4307 90.2861 83.8154C89.1729 83.2002 88.3086 82.3506 87.6934 81.2666C87.1074 80.1826 86.6826 79.04 86.4189 77.8389C86.1553 76.6084 86.0234 75.29 86.0234 73.8838C86.0234 72.7705 86.1699 71.3057 86.4629 69.4893L88.4404 69.9727C88.4697 70.3535 88.5137 71.0859 88.5723 72.1699C88.6602 73.2246 88.7334 73.9863 88.792 74.4551C88.8506 74.9238 88.9385 75.5977 89.0557 76.4766C89.2021 77.3262 89.3926 77.9707 89.627 78.4102C89.8906 78.8203 90.1982 79.2744 90.5498 79.7725C90.9307 80.2705 91.3994 80.6221 91.9561 80.8271C92.542 81.0322 93.2158 81.1348 93.9775 81.1348C94.9443 81.1348 96.292 80.8564 98.0205 80.2998C98.0205 79.5381 98.0938 77.8535 98.2402 75.2461C98.3867 72.6094 98.46 70.9688 98.46 70.3242C98.46 69.9434 98.4453 69.7236 98.416 69.665ZM106.941 74.0156L106.062 71.7744C106.824 71.0127 107.791 70.4121 108.963 69.9727C110.135 69.5039 111.292 69.2695 112.435 69.2695C117.386 69.2695 119.861 73.5469 119.861 82.1016C119.861 83.2734 119.788 85.002 119.642 87.2871C119.524 89.5723 119.466 91.2861 119.466 92.4287C119.231 93.3369 118.777 93.791 118.104 93.791C117.576 93.791 117.093 93.5273 116.653 93C116.214 92.4727 115.994 91.8867 115.994 91.2422C115.994 91.0371 116.009 90.8906 116.038 90.8027C114.222 92.5605 112.288 93.4395 110.237 93.4395C108.685 93.4395 107.322 92.8828 106.15 91.7695C105.008 90.627 104.437 89.25 104.437 87.6387C104.437 84.9141 105.491 82.4531 107.601 80.2559C109.739 78.0586 112.156 76.96 114.852 76.96C114.969 76.96 115.086 76.9746 115.203 77.0039C115.32 77.0039 115.452 77.0186 115.599 77.0479C115.774 77.0771 115.906 77.0918 115.994 77.0918C115.76 73.6641 114.397 71.9502 111.907 71.9502C110.442 71.9502 108.787 72.6387 106.941 74.0156ZM116.126 87.7705C116.185 85.7197 116.214 84.167 116.214 83.1123C116.214 82.2334 116.185 81.0029 116.126 79.4209H115.774C113.694 79.4502 111.79 80.2266 110.062 81.75C108.362 83.2734 107.513 85.1191 107.513 87.2871C107.513 88.2246 107.791 88.9717 108.348 89.5283C108.934 90.085 109.637 90.3633 110.457 90.3633C111.746 90.3633 113.636 89.499 116.126 87.7705ZM138.23 71.2031L138.011 73.0928C136.78 72.917 135.726 72.8291 134.847 72.8291C132.825 72.8291 131.155 73.4443 129.837 74.6748C128.519 75.876 127.61 77.3115 127.112 78.9814C126.644 80.6221 126.409 82.4531 126.409 84.4746C126.409 85.4121 126.468 86.2471 126.585 86.9795C126.702 87.7119 126.907 88.4297 127.2 89.1328C127.522 89.8359 128.006 90.3926 128.65 90.8027C129.324 91.1836 130.145 91.374 131.111 91.374C132.4 91.374 134.041 91.125 136.033 90.627C136.648 90.3926 137.132 90.2754 137.483 90.2754C138.187 90.2754 138.611 91.0957 138.758 92.7363C136.18 93.5566 133.792 93.9668 131.595 93.9668C128.401 93.9668 126.233 93.1904 125.091 91.6377C123.978 90.0557 123.421 87.5068 123.421 83.9912C123.421 81.9404 123.553 80.1533 123.816 78.6299C124.109 77.0771 124.607 75.6416 125.311 74.3232C126.014 72.9756 127.024 71.9502 128.343 71.2471C129.69 70.5439 131.331 70.1924 133.265 70.1924C135.433 70.1924 137.088 70.5293 138.23 71.2031ZM139.593 72.8291L139.197 70.8955C143.123 70.6611 149.305 70.3389 157.742 69.9287C158.445 69.958 159.046 70.2217 159.544 70.7197C160.042 71.2178 160.291 71.7451 160.291 72.3018C160.291 73.1807 159.705 73.6787 158.533 73.7959L150.315 73.4004C150.462 75.5977 150.535 78.8057 150.535 83.0244C150.564 87.2139 150.623 90.2754 150.711 92.209C150.447 93.0586 149.935 93.4834 149.173 93.4834C148.675 93.4834 148.191 93.2783 147.723 92.8682C147.254 92.458 146.961 91.96 146.844 91.374C147.254 84.167 147.679 78.1172 148.118 73.2246L139.593 72.8291ZM162.225 70.7197L164.202 71.1592C164.261 72.0967 164.349 73.1953 164.466 74.4551C164.612 75.7148 164.773 77.1504 164.949 78.7617C166.121 78.4102 167.234 78.2344 168.289 78.2344C169.549 78.2344 170.721 78.4834 171.805 78.9814C172.889 79.4502 173.812 80.0801 174.573 80.8711C175.335 81.6621 175.936 82.5703 176.375 83.5957C176.814 84.5918 177.034 85.6172 177.034 86.6719C177.034 87.6973 176.814 88.6348 176.375 89.4844C175.936 90.334 175.35 91.0664 174.617 91.6816C173.885 92.2676 173.035 92.7217 172.068 93.0439C171.102 93.3955 170.076 93.5713 168.992 93.5713C168.787 93.5713 168.333 93.5566 167.63 93.5273C166.927 93.498 166.18 93.4248 165.389 93.3076C164.627 93.2197 163.938 93.0879 163.323 92.9121C162.708 92.7363 162.386 92.4873 162.356 92.165C162.356 91.667 162.342 90.9932 162.312 90.1436C162.312 89.2646 162.298 88.2979 162.269 87.2432C162.269 86.1885 162.254 85.0898 162.225 83.9473C162.195 82.7754 162.166 81.6475 162.137 80.5635C162.137 79.4795 162.122 78.4834 162.093 77.5752C162.093 76.667 162.093 75.9492 162.093 75.4219C162.093 73.7812 162.137 72.2139 162.225 70.7197ZM165.345 81.4863L164.949 90.3193C166.121 90.7295 167.234 90.9346 168.289 90.9346C169.109 90.9346 169.856 90.8027 170.53 90.5391C171.233 90.2461 171.819 89.8799 172.288 89.4404C172.757 88.9717 173.123 88.4443 173.387 87.8584C173.65 87.2725 173.782 86.6572 173.782 86.0127C173.782 85.3682 173.65 84.7676 173.387 84.2109C173.123 83.625 172.728 83.1123 172.2 82.6729C171.673 82.2334 171.028 81.8965 170.267 81.6621C169.505 81.3984 168.641 81.2666 167.674 81.2666C167.352 81.2666 167 81.2959 166.619 81.3545C166.238 81.3838 165.813 81.4277 165.345 81.4863ZM197.425 88.7373L197.864 90.6709C196.575 91.1396 194.656 91.667 192.107 92.2529C189.588 92.8096 187.713 93.0879 186.482 93.0879C185.223 93.0879 184.124 92.6777 183.187 91.8574C182.249 91.0078 181.546 89.9385 181.077 88.6494C180.608 87.3311 180.257 86.042 180.022 84.7822C179.817 83.4932 179.715 82.2334 179.715 81.0029C179.715 73.6787 183.025 70.0166 189.646 70.0166C191.229 70.0166 192.62 70.5293 193.821 71.5547C195.022 72.5508 195.623 73.8545 195.623 75.4658C195.623 76.3447 195.374 77.1211 194.876 77.7949C194.407 78.4688 193.821 79.0107 193.118 79.4209C192.444 79.8018 191.565 80.1533 190.481 80.4756C189.427 80.7979 188.489 81.0322 187.669 81.1787C186.849 81.3252 185.867 81.4863 184.725 81.6621C183.582 81.8379 182.791 81.9697 182.352 82.0576C182.381 82.9072 182.425 83.6543 182.483 84.2988C182.571 84.9434 182.718 85.6465 182.923 86.4082C183.157 87.1406 183.45 87.7559 183.802 88.2539C184.183 88.7227 184.695 89.1182 185.34 89.4404C185.984 89.7627 186.746 89.9238 187.625 89.9238C188.68 89.9238 189.969 89.8359 191.492 89.6602C193.016 89.4551 194.363 89.25 195.535 89.0449C196.736 88.8398 197.366 88.7373 197.425 88.7373ZM182.527 79.333C186.512 78.1904 189.778 76.9893 192.327 75.7295C192.122 74.7627 191.844 74.0596 191.492 73.6201C191.141 73.1807 190.613 72.9609 189.91 72.9609C188.123 72.9609 186.497 73.5762 185.032 74.8066C183.597 76.0371 182.762 77.5459 182.527 79.333ZM89.2534 120.456C93.7944 119.489 96.563 119.006 97.5591 119.006C101.485 119.006 103.448 120.69 103.448 124.06C103.448 125.231 103.243 126.374 102.833 127.487C102.452 128.571 101.968 129.289 101.382 129.641C103.667 131.193 104.81 133.332 104.81 136.057C104.81 138.635 103.96 140.642 102.261 142.077C100.591 143.513 98.3794 144.23 95.6255 144.23C92.3442 144.23 89.8979 143.352 88.2866 141.594L89.2534 120.456ZM91.7583 131.486L92.1538 140.407C92.8862 140.759 93.7212 140.935 94.6587 140.935C96.4751 140.935 98.145 140.363 99.6685 139.221C101.192 138.078 101.954 136.745 101.954 135.222C101.954 134.167 101.543 133.2 100.723 132.321C99.9028 131.413 98.8628 130.959 97.603 130.959C96.8706 130.959 94.9224 131.135 91.7583 131.486ZM91.3188 122.434L91.6265 129.201C92.0659 129.143 92.7397 129.099 93.6479 129.069C94.5562 129.04 95.2886 128.981 95.8452 128.894C96.4019 128.776 97.0171 128.557 97.6909 128.234C98.3647 127.883 98.8921 127.282 99.2729 126.433C99.6831 125.583 99.9614 124.47 100.108 123.093C99.8149 122.214 98.9214 121.774 97.4272 121.774C96.7534 121.774 95.6987 121.877 94.2632 122.082C92.8276 122.287 91.8462 122.404 91.3188 122.434ZM121.465 148.757L119.488 148.317C119.488 147.995 119.429 147.043 119.312 145.461C119.195 143.879 119.136 142.736 119.136 142.033C119.136 141.447 119.18 140.817 119.268 140.144H122.125C122.271 139.646 122.505 138.898 122.828 137.902C123.179 136.906 123.414 136.203 123.531 135.793C123.648 135.383 123.809 134.782 124.014 133.991C124.249 133.171 124.395 132.482 124.454 131.926C124.542 131.34 124.615 130.622 124.673 129.772C124.761 128.923 124.805 128.029 124.805 127.092C124.805 124.895 124.717 122.419 124.542 119.665C126.182 119.753 127.911 119.812 129.727 119.841C131.573 119.87 133.082 119.914 134.253 119.973C135.425 120.031 136.626 120.163 137.857 120.368C137.945 122.36 138.033 125.642 138.121 130.212C138.238 134.753 138.34 138.02 138.428 140.012H141.856V141.33C141.856 142.092 141.871 143.176 141.9 144.582C141.958 145.988 141.988 146.926 141.988 147.395C141.988 148.273 141.958 148.947 141.9 149.416L139.922 148.977C139.805 148.566 139.688 148.039 139.571 147.395C139.483 146.779 139.38 146.105 139.263 145.373C139.146 144.641 139.058 144.113 139 143.791C137.33 143.703 134.664 143.527 131.001 143.264C127.369 143 124.527 142.824 122.476 142.736L121.465 148.757ZM128.233 122.434C128.204 122.873 128.174 123.796 128.145 125.202C128.116 126.579 128.072 127.634 128.013 128.366C127.984 129.099 127.896 130.124 127.75 131.442C127.632 132.731 127.471 133.815 127.266 134.694C127.061 135.544 126.753 136.481 126.343 137.507C125.962 138.503 125.508 139.367 124.981 140.1H134.605L135.484 122.785C135.074 122.756 133.99 122.712 132.232 122.653C130.503 122.595 129.17 122.521 128.233 122.434ZM142.735 133.64C142.735 132.468 142.852 131.164 143.086 129.729C143.35 128.293 143.731 126.784 144.229 125.202C144.727 123.62 145.474 122.302 146.47 121.247C147.466 120.192 148.624 119.665 149.942 119.665C152.754 119.665 155.01 120.939 156.709 123.488C158.409 126.008 159.258 128.82 159.258 131.926C159.258 133.244 159.112 134.562 158.819 135.881C158.555 137.17 158.13 138.444 157.544 139.704C156.958 140.964 156.109 142.019 154.996 142.868C153.912 143.688 152.637 144.157 151.172 144.274C148.477 143.923 146.397 142.78 144.932 140.847C143.467 138.884 142.735 136.481 142.735 133.64ZM150.206 121.95C149.18 122.067 148.316 123.005 147.613 124.763C146.91 126.521 146.456 128.234 146.25 129.904C146.045 131.545 145.943 132.995 145.943 134.255C145.943 135.896 146.441 137.419 147.437 138.825C148.462 140.202 149.605 140.891 150.865 140.891C151.773 140.891 152.593 140.539 153.326 139.836C154.058 139.133 154.629 138.269 155.04 137.243C155.479 136.188 155.801 135.134 156.006 134.079C156.241 133.024 156.358 132.087 156.358 131.267C156.358 128.864 155.816 126.77 154.732 124.982C153.648 123.195 152.139 122.185 150.206 121.95ZM180.044 121.335L183.033 121.071C184.498 125.026 185.992 132.395 187.515 143.176C187.017 143.293 186.519 143.352 186.021 143.352C185.582 143.352 185.069 143.278 184.483 143.132C184.073 141.521 183.575 138.679 182.989 134.606C182.432 130.534 181.934 127.648 181.495 125.949C180.059 128.293 178.125 132.6 175.694 138.869C175.489 138.898 175.123 138.957 174.595 139.045C174.097 139.133 173.716 139.177 173.453 139.177C173.13 139.177 172.75 139.133 172.31 139.045C171.841 137.844 171.138 135.925 170.201 133.288C169.292 130.622 168.56 128.615 168.003 127.268C165.191 134.475 163.433 139.807 162.73 143.264L161.016 142.78C161.163 140.554 161.968 136.672 163.433 131.135C164.898 125.568 165.777 122.023 166.07 120.5C166.421 120.5 166.817 120.544 167.256 120.632C167.725 120.69 168.077 120.72 168.311 120.72C169.073 122.038 170.113 124.572 171.431 128.322C172.75 132.043 173.628 134.372 174.068 135.31C176.294 128.981 178.287 124.323 180.044 121.335Z" fill="black"/>
<line x1="138" y1="176.5" x2="138" y2="157.5" stroke="black" stroke-width="3" stroke-linecap="round" stroke-linejoin="round"/>
<line x1="81.6274" y1="160.996" x2="73.9958" y2="177.221" stroke="black" stroke-width="3" stroke-linecap="round" stroke-linejoin="round"/>
<line x1="107.848" y1="170.929" x2="109.947" y2="161.152" stroke="black" stroke-width="3" stroke-linecap="round" stroke-linejoin="round"/>
<line x1="39.1985" y1="15.2546" x2="53.8967" y2="29.5983" stroke="black" stroke-width="3" stroke-linecap="round" stroke-linejoin="round"/>
<line x1="42.5846" y1="159.693" x2="36.3517" y2="166.783" stroke="black" stroke-width="3" stroke-linecap="round" stroke-linejoin="round"/>
<line x1="28.6391" y1="130.861" x2="2.52269" y2="146.375" stroke="black" stroke-width="3" stroke-linecap="round" stroke-linejoin="round"/>
<line x1="31.1925" y1="96.7007" x2="11.2568" y2="95.7007" stroke="black" stroke-width="3" stroke-linecap="round" stroke-linejoin="round"/>
<path d="M9.10976 48.8324L37.6015 55.6676" stroke="black" stroke-width="3" stroke-linecap="round" stroke-linejoin="round"/>
<line x1="1.5" y1="-1.5" x2="19.43" y2="-1.5" transform="matrix(0.425632 0.904896 0.904896 -0.425632 194.819 158.719)" stroke="black" stroke-width="3" stroke-linecap="round" stroke-linejoin="round"/>
<line x1="1.5" y1="-1.5" x2="11.5" y2="-1.5" transform="matrix(-0.209843 -0.977735 -0.977735 0.209843 166.728 172.43)" stroke="black" stroke-width="3" stroke-linecap="round" stroke-linejoin="round"/>
<line x1="1.5" y1="-1.5" x2="22.0372" y2="-1.5" transform="matrix(-0.715686 0.698422 0.698422 0.715686 238.651 15)" stroke="black" stroke-width="3" stroke-linecap="round" stroke-linejoin="round"/>
<line x1="1.5" y1="-1.5" x2="10.94" y2="-1.5" transform="matrix(0.660264 0.751033 0.751033 -0.660264 233.279 157.296)" stroke="black" stroke-width="3" stroke-linecap="round" stroke-linejoin="round"/>
<line x1="1.5" y1="-1.5" x2="31.8766" y2="-1.5" transform="matrix(0.859752 0.510712 0.510712 -0.859752 246.565 128.525)" stroke="black" stroke-width="3" stroke-linecap="round" stroke-linejoin="round"/>
<line x1="1.5" y1="-1.5" x2="21.4357" y2="-0.5" transform="matrix(1 0 0 -1 243.035 94.9201)" stroke="black" stroke-width="3" stroke-linecap="round" stroke-linejoin="round"/>
<path d="M266.618 48.5519L238.126 55.3871" stroke="black" stroke-width="3" stroke-linecap="round" stroke-linejoin="round"/>
</g>
<defs>
<clipPath id="clip0">
<rect width="275" height="179" fill="white"/>
</clipPath>
</defs>
</svg>
