<svg width="275" height="179" viewBox="0 0 275 179" fill="none" xmlns="http://www.w3.org/2000/svg">
<g clip-path="url(#clip0)">
<path d="M185.698 4.50001C183.598 6.90001 178.698 13.3 174.998 18.6C171.198 23.9 167.498 28.8 166.698 29.6C164.298 32 164.113 33 168.298 34.3C169.358 34.3 176.66 36.4098 179.613 38C186.113 41.5 187.929 43.5 189.113 44.5C190.113 45.3441 191.498 44.9 191.498 43.5C191.498 42.1 191.798 42.1 194.198 44C199.882 48.5 198.998 45 195.698 38.3C192.398 31.9 190.613 30.5 188.498 30.5C187.698 31 187.798 31.6 188.598 32.7C190.613 35 189.598 34.3 188.498 35C187.698 35.5 187.398 36.8 187.798 38.8L188.398 41.7L181.113 36.5C175.613 33.2 170.198 32.4 169.898 31.6C169.498 30.6 172.198 26 177.098 19.3C188.198 4.10001 190.398 1.70001 192.098 3.10001C193.898 4.50001 196.098 12 197.998 22.9C199.398 31.2 199.998 32.8 201.098 31.8C201.798 31 198.798 13.6 196.998 8.10001C195.398 3.30001 192.898 1.4573e-05 190.898 1.4573e-05C190.198 1.4573e-05 187.898 2.00001 185.698 4.50001Z" fill="black"/>
<path d="M87.5039 4.50001C89.6039 6.90001 94.5039 13.3 98.2039 18.6C102.004 23.9 105.704 28.8 106.504 29.6C108.904 32 109.089 33 104.904 34.3C103.844 34.3 96.5418 36.4098 93.5886 38C87.0886 41.5 85.2733 43.5 84.0886 44.5C83.0886 45.3441 81.7039 44.9 81.7039 43.5C81.7039 42.1 81.4039 42.1 79.0039 44C73.3197 48.5 74.2039 45 77.5039 38.3C80.8039 31.9 82.5886 30.5 84.7039 30.5C85.5039 31 85.4039 31.6 84.6039 32.7C82.5886 35 83.6039 34.3 84.7039 35C85.5039 35.5 85.8039 36.8 85.4039 38.8L84.8039 41.7L92.0886 36.5C97.5886 33.2 103.004 32.4 103.304 31.6C103.704 30.6 101.004 26 96.1039 19.3C85.0039 4.10001 82.8039 1.70001 81.1039 3.10001C79.3039 4.50001 77.1039 12 75.2039 22.9C73.8039 31.2 73.2039 32.8 72.1039 31.8C71.4039 31 74.4039 13.6 76.2039 8.10001C77.8039 3.30001 80.3039 1.4573e-05 82.3039 1.4573e-05C83.0039 1.4573e-05 85.3039 2.00001 87.5039 4.50001Z" fill="black"/>
<path d="M92.3242 63.9961L90.5664 66.0176C88.2812 64.3184 86.0254 63.4688 83.7988 63.4688C82.334 63.4688 81.0742 63.8203 80.0195 64.5234C78.9648 65.2266 78.1592 66.0762 77.6025 67.0723C77.0752 68.0684 76.6504 69.3281 76.3281 70.8516C76.0352 72.375 75.8447 73.6934 75.7568 74.8066C75.6982 75.9199 75.6689 77.2236 75.6689 78.7178C75.6689 80.1826 75.9326 81.8525 76.46 83.7275C77.0166 85.5732 77.9395 87.3018 79.2285 88.9131C80.5176 90.5244 82.0117 91.3301 83.7109 91.3301C85.5566 91.3301 88.3838 90.3633 92.1924 88.4297C92.5732 88.9863 93.0713 89.9092 93.6865 91.1982C89.9951 93.7471 86.6992 95.0215 83.7988 95.0215C81.9238 95.0215 80.21 94.4502 78.6572 93.3076C77.1045 92.165 75.874 90.7148 74.9658 88.957C74.0869 87.1992 73.3984 85.3682 72.9004 83.4639C72.4316 81.5303 72.1973 79.6992 72.1973 77.9707C72.1973 76.0664 72.3438 74.2207 72.6367 72.4336C72.9297 70.6172 73.4277 68.8008 74.1309 66.9844C74.834 65.168 75.8887 63.7031 77.2949 62.5898C78.7305 61.4766 80.4297 60.9199 82.3926 60.9199C84.0918 60.9199 85.8496 61.2129 87.666 61.7988C89.4824 62.3848 91.0352 63.1172 92.3242 63.9961ZM105.2 69.665L107.002 69.0938C107.324 70.1777 107.632 74.25 107.925 81.3105C108.247 88.3418 108.467 92.1211 108.584 92.6484C108.32 93.5566 107.808 94.0107 107.046 94.0107C106.519 94.0107 106.006 93.791 105.508 93.3516C105.039 92.9121 104.746 92.3848 104.629 91.7695C104.688 90.0996 104.746 87.5654 104.805 84.167C103.281 84.5479 102.021 84.7383 101.025 84.7383C99.502 84.7383 98.1836 84.4307 97.0703 83.8154C95.957 83.2002 95.0928 82.3506 94.4775 81.2666C93.8916 80.1826 93.4668 79.04 93.2031 77.8389C92.9395 76.6084 92.8076 75.29 92.8076 73.8838C92.8076 72.7705 92.9541 71.3057 93.2471 69.4893L95.2246 69.9727C95.2539 70.3535 95.2979 71.0859 95.3564 72.1699C95.4443 73.2246 95.5176 73.9863 95.5762 74.4551C95.6348 74.9238 95.7227 75.5977 95.8398 76.4766C95.9863 77.3262 96.1768 77.9707 96.4111 78.4102C96.6748 78.8203 96.9824 79.2744 97.334 79.7725C97.7148 80.2705 98.1836 80.6221 98.7402 80.8271C99.3262 81.0322 100 81.1348 100.762 81.1348C101.729 81.1348 103.076 80.8564 104.805 80.2998C104.805 79.5381 104.878 77.8535 105.024 75.2461C105.171 72.6094 105.244 70.9688 105.244 70.3242C105.244 69.9434 105.229 69.7236 105.2 69.665ZM113.726 74.0156L112.847 71.7744C113.608 71.0127 114.575 70.4121 115.747 69.9727C116.919 69.5039 118.076 69.2695 119.219 69.2695C124.17 69.2695 126.646 73.5469 126.646 82.1016C126.646 83.2734 126.572 85.002 126.426 87.2871C126.309 89.5723 126.25 91.2861 126.25 92.4287C126.016 93.3369 125.562 93.791 124.888 93.791C124.36 93.791 123.877 93.5273 123.438 93C122.998 92.4727 122.778 91.8867 122.778 91.2422C122.778 91.0371 122.793 90.8906 122.822 90.8027C121.006 92.5605 119.072 93.4395 117.021 93.4395C115.469 93.4395 114.106 92.8828 112.935 91.7695C111.792 90.627 111.221 89.25 111.221 87.6387C111.221 84.9141 112.275 82.4531 114.385 80.2559C116.523 78.0586 118.94 76.96 121.636 76.96C121.753 76.96 121.87 76.9746 121.987 77.0039C122.104 77.0039 122.236 77.0186 122.383 77.0479C122.559 77.0771 122.69 77.0918 122.778 77.0918C122.544 73.6641 121.182 71.9502 118.691 71.9502C117.227 71.9502 115.571 72.6387 113.726 74.0156ZM122.91 87.7705C122.969 85.7197 122.998 84.167 122.998 83.1123C122.998 82.2334 122.969 81.0029 122.91 79.4209H122.559C120.479 79.4502 118.574 80.2266 116.846 81.75C115.146 83.2734 114.297 85.1191 114.297 87.2871C114.297 88.2246 114.575 88.9717 115.132 89.5283C115.718 90.085 116.421 90.3633 117.241 90.3633C118.53 90.3633 120.42 89.499 122.91 87.7705ZM145.015 71.2031L144.795 73.0928C143.564 72.917 142.51 72.8291 141.631 72.8291C139.609 72.8291 137.939 73.4443 136.621 74.6748C135.303 75.876 134.395 77.3115 133.896 78.9814C133.428 80.6221 133.193 82.4531 133.193 84.4746C133.193 85.4121 133.252 86.2471 133.369 86.9795C133.486 87.7119 133.691 88.4297 133.984 89.1328C134.307 89.8359 134.79 90.3926 135.435 90.8027C136.108 91.1836 136.929 91.374 137.896 91.374C139.185 91.374 140.825 91.125 142.817 90.627C143.433 90.3926 143.916 90.2754 144.268 90.2754C144.971 90.2754 145.396 91.0957 145.542 92.7363C142.964 93.5566 140.576 93.9668 138.379 93.9668C135.186 93.9668 133.018 93.1904 131.875 91.6377C130.762 90.0557 130.205 87.5068 130.205 83.9912C130.205 81.9404 130.337 80.1533 130.601 78.6299C130.894 77.0771 131.392 75.6416 132.095 74.3232C132.798 72.9756 133.809 71.9502 135.127 71.2471C136.475 70.5439 138.115 70.1924 140.049 70.1924C142.217 70.1924 143.872 70.5293 145.015 71.2031ZM146.377 72.8291L145.981 70.8955C149.907 70.6611 156.089 70.3389 164.526 69.9287C165.229 69.958 165.83 70.2217 166.328 70.7197C166.826 71.2178 167.075 71.7451 167.075 72.3018C167.075 73.1807 166.489 73.6787 165.317 73.7959L157.1 73.4004C157.246 75.5977 157.319 78.8057 157.319 83.0244C157.349 87.2139 157.407 90.2754 157.495 92.209C157.231 93.0586 156.719 93.4834 155.957 93.4834C155.459 93.4834 154.976 93.2783 154.507 92.8682C154.038 92.458 153.745 91.96 153.628 91.374C154.038 84.167 154.463 78.1172 154.902 73.2246L146.377 72.8291ZM169.009 70.7197L170.986 71.1592C171.045 72.0967 171.133 73.1953 171.25 74.4551C171.396 75.7148 171.558 77.1504 171.733 78.7617C172.905 78.4102 174.019 78.2344 175.073 78.2344C176.333 78.2344 177.505 78.4834 178.589 78.9814C179.673 79.4502 180.596 80.0801 181.357 80.8711C182.119 81.6621 182.72 82.5703 183.159 83.5957C183.599 84.5918 183.818 85.6172 183.818 86.6719C183.818 87.6973 183.599 88.6348 183.159 89.4844C182.72 90.334 182.134 91.0664 181.401 91.6816C180.669 92.2676 179.819 92.7217 178.853 93.0439C177.886 93.3955 176.86 93.5713 175.776 93.5713C175.571 93.5713 175.117 93.5566 174.414 93.5273C173.711 93.498 172.964 93.4248 172.173 93.3076C171.411 93.2197 170.723 93.0879 170.107 92.9121C169.492 92.7363 169.17 92.4873 169.141 92.165C169.141 91.667 169.126 90.9932 169.097 90.1436C169.097 89.2646 169.082 88.2979 169.053 87.2432C169.053 86.1885 169.038 85.0898 169.009 83.9473C168.979 82.7754 168.95 81.6475 168.921 80.5635C168.921 79.4795 168.906 78.4834 168.877 77.5752C168.877 76.667 168.877 75.9492 168.877 75.4219C168.877 73.7812 168.921 72.2139 169.009 70.7197ZM172.129 81.4863L171.733 90.3193C172.905 90.7295 174.019 90.9346 175.073 90.9346C175.894 90.9346 176.641 90.8027 177.314 90.5391C178.018 90.2461 178.604 89.8799 179.072 89.4404C179.541 88.9717 179.907 88.4443 180.171 87.8584C180.435 87.2725 180.566 86.6572 180.566 86.0127C180.566 85.3682 180.435 84.7676 180.171 84.2109C179.907 83.625 179.512 83.1123 178.984 82.6729C178.457 82.2334 177.812 81.8965 177.051 81.6621C176.289 81.3984 175.425 81.2666 174.458 81.2666C174.136 81.2666 173.784 81.2959 173.403 81.3545C173.022 81.3838 172.598 81.4277 172.129 81.4863ZM204.209 88.7373L204.648 90.6709C203.359 91.1396 201.44 91.667 198.892 92.2529C196.372 92.8096 194.497 93.0879 193.267 93.0879C192.007 93.0879 190.908 92.6777 189.971 91.8574C189.033 91.0078 188.33 89.9385 187.861 88.6494C187.393 87.3311 187.041 86.042 186.807 84.7822C186.602 83.4932 186.499 82.2334 186.499 81.0029C186.499 73.6787 189.81 70.0166 196.431 70.0166C198.013 70.0166 199.404 70.5293 200.605 71.5547C201.807 72.5508 202.407 73.8545 202.407 75.4658C202.407 76.3447 202.158 77.1211 201.66 77.7949C201.191 78.4688 200.605 79.0107 199.902 79.4209C199.229 79.8018 198.35 80.1533 197.266 80.4756C196.211 80.7979 195.273 81.0322 194.453 81.1787C193.633 81.3252 192.651 81.4863 191.509 81.6621C190.366 81.8379 189.575 81.9697 189.136 82.0576C189.165 82.9072 189.209 83.6543 189.268 84.2988C189.355 84.9434 189.502 85.6465 189.707 86.4082C189.941 87.1406 190.234 87.7559 190.586 88.2539C190.967 88.7227 191.479 89.1182 192.124 89.4404C192.769 89.7627 193.53 89.9238 194.409 89.9238C195.464 89.9238 196.753 89.8359 198.276 89.6602C199.8 89.4551 201.147 89.25 202.319 89.0449C203.521 88.8398 204.15 88.7373 204.209 88.7373ZM189.312 79.333C193.296 78.1904 196.562 76.9893 199.111 75.7295C198.906 74.7627 198.628 74.0596 198.276 73.6201C197.925 73.1807 197.397 72.9609 196.694 72.9609C194.907 72.9609 193.281 73.5762 191.816 74.8066C190.381 76.0371 189.546 77.5459 189.312 79.333ZM89.7534 120.456C94.2944 119.489 97.063 119.006 98.0591 119.006C101.985 119.006 103.948 120.69 103.948 124.06C103.948 125.231 103.743 126.374 103.333 127.487C102.952 128.571 102.468 129.289 101.882 129.641C104.167 131.193 105.31 133.332 105.31 136.057C105.31 138.635 104.46 140.642 102.761 142.077C101.091 143.513 98.8794 144.23 96.1255 144.23C92.8442 144.23 90.3979 143.352 88.7866 141.594L89.7534 120.456ZM92.2583 131.486L92.6538 140.407C93.3862 140.759 94.2212 140.935 95.1587 140.935C96.9751 140.935 98.645 140.363 100.168 139.221C101.692 138.078 102.454 136.745 102.454 135.222C102.454 134.167 102.043 133.2 101.223 132.321C100.403 131.413 99.3628 130.959 98.103 130.959C97.3706 130.959 95.4224 131.135 92.2583 131.486ZM91.8188 122.434L92.1265 129.201C92.5659 129.143 93.2397 129.099 94.1479 129.069C95.0562 129.04 95.7886 128.981 96.3452 128.894C96.9019 128.776 97.5171 128.557 98.1909 128.234C98.8647 127.883 99.3921 127.282 99.7729 126.433C100.183 125.583 100.461 124.47 100.608 123.093C100.315 122.214 99.4214 121.774 97.9272 121.774C97.2534 121.774 96.1987 121.877 94.7632 122.082C93.3276 122.287 92.3462 122.404 91.8188 122.434ZM121.965 148.757L119.988 148.317C119.988 147.995 119.929 147.043 119.812 145.461C119.695 143.879 119.636 142.736 119.636 142.033C119.636 141.447 119.68 140.817 119.768 140.144H122.625C122.771 139.646 123.005 138.898 123.328 137.902C123.679 136.906 123.914 136.203 124.031 135.793C124.148 135.383 124.309 134.782 124.514 133.991C124.749 133.171 124.895 132.482 124.954 131.926C125.042 131.34 125.115 130.622 125.173 129.772C125.261 128.923 125.305 128.029 125.305 127.092C125.305 124.895 125.217 122.419 125.042 119.665C126.682 119.753 128.411 119.812 130.227 119.841C132.073 119.87 133.582 119.914 134.753 119.973C135.925 120.031 137.126 120.163 138.357 120.368C138.445 122.36 138.533 125.642 138.621 130.212C138.738 134.753 138.84 138.02 138.928 140.012H142.356V141.33C142.356 142.092 142.371 143.176 142.4 144.582C142.458 145.988 142.488 146.926 142.488 147.395C142.488 148.273 142.458 148.947 142.4 149.416L140.422 148.977C140.305 148.566 140.188 148.039 140.071 147.395C139.983 146.779 139.88 146.105 139.763 145.373C139.646 144.641 139.558 144.113 139.5 143.791C137.83 143.703 135.164 143.527 131.501 143.264C127.869 143 125.027 142.824 122.976 142.736L121.965 148.757ZM128.733 122.434C128.704 122.873 128.674 123.796 128.645 125.202C128.616 126.579 128.572 127.634 128.513 128.366C128.484 129.099 128.396 130.124 128.25 131.442C128.132 132.731 127.971 133.815 127.766 134.694C127.561 135.544 127.253 136.481 126.843 137.507C126.462 138.503 126.008 139.367 125.481 140.1H135.105L135.984 122.785C135.574 122.756 134.49 122.712 132.732 122.653C131.003 122.595 129.67 122.521 128.733 122.434ZM143.235 133.64C143.235 132.468 143.352 131.164 143.586 129.729C143.85 128.293 144.231 126.784 144.729 125.202C145.227 123.62 145.974 122.302 146.97 121.247C147.966 120.192 149.124 119.665 150.442 119.665C153.254 119.665 155.51 120.939 157.209 123.488C158.909 126.008 159.758 128.82 159.758 131.926C159.758 133.244 159.612 134.562 159.319 135.881C159.055 137.17 158.63 138.444 158.044 139.704C157.458 140.964 156.609 142.019 155.496 142.868C154.412 143.688 153.137 144.157 151.672 144.274C148.977 143.923 146.897 142.78 145.432 140.847C143.967 138.884 143.235 136.481 143.235 133.64ZM150.706 121.95C149.68 122.067 148.816 123.005 148.113 124.763C147.41 126.521 146.956 128.234 146.75 129.904C146.545 131.545 146.443 132.995 146.443 134.255C146.443 135.896 146.941 137.419 147.937 138.825C148.962 140.202 150.105 140.891 151.365 140.891C152.273 140.891 153.093 140.539 153.826 139.836C154.558 139.133 155.129 138.269 155.54 137.243C155.979 136.188 156.301 135.134 156.506 134.079C156.741 133.024 156.858 132.087 156.858 131.267C156.858 128.864 156.316 126.77 155.232 124.982C154.148 123.195 152.639 122.185 150.706 121.95ZM180.544 121.335L183.533 121.071C184.998 125.026 186.492 132.395 188.015 143.176C187.517 143.293 187.019 143.352 186.521 143.352C186.082 143.352 185.569 143.278 184.983 143.132C184.573 141.521 184.075 138.679 183.489 134.606C182.932 130.534 182.434 127.648 181.995 125.949C180.559 128.293 178.625 132.6 176.194 138.869C175.989 138.898 175.623 138.957 175.095 139.045C174.597 139.133 174.216 139.177 173.953 139.177C173.63 139.177 173.25 139.133 172.81 139.045C172.341 137.844 171.638 135.925 170.701 133.288C169.792 130.622 169.06 128.615 168.503 127.268C165.691 134.475 163.933 139.807 163.23 143.264L161.516 142.78C161.663 140.554 162.468 136.672 163.933 131.135C165.398 125.568 166.277 122.023 166.57 120.5C166.921 120.5 167.317 120.544 167.756 120.632C168.225 120.69 168.577 120.72 168.811 120.72C169.573 122.038 170.613 124.572 171.931 128.322C173.25 132.043 174.128 134.372 174.568 135.31C176.794 128.981 178.787 124.323 180.544 121.335Z" fill="black"/>
<line x1="138" y1="176.5" x2="138" y2="157.5" stroke="black" stroke-width="3" stroke-linecap="round" stroke-linejoin="round"/>
<line x1="81.6274" y1="160.996" x2="73.9958" y2="177.221" stroke="black" stroke-width="3" stroke-linecap="round" stroke-linejoin="round"/>
<line x1="107.848" y1="170.929" x2="109.947" y2="161.152" stroke="black" stroke-width="3" stroke-linecap="round" stroke-linejoin="round"/>
<line x1="39.1985" y1="15.2546" x2="53.8967" y2="29.5983" stroke="black" stroke-width="3" stroke-linecap="round" stroke-linejoin="round"/>
<line x1="42.5846" y1="159.693" x2="36.3517" y2="166.783" stroke="black" stroke-width="3" stroke-linecap="round" stroke-linejoin="round"/>
<line x1="28.6391" y1="130.861" x2="2.52269" y2="146.375" stroke="black" stroke-width="3" stroke-linecap="round" stroke-linejoin="round"/>
<line x1="31.1925" y1="96.7007" x2="11.2568" y2="95.7007" stroke="black" stroke-width="3" stroke-linecap="round" stroke-linejoin="round"/>
<path d="M9.10976 48.8324L37.6015 55.6676" stroke="black" stroke-width="3" stroke-linecap="round" stroke-linejoin="round"/>
<line x1="1.5" y1="-1.5" x2="19.43" y2="-1.5" transform="matrix(0.425632 0.904896 0.904896 -0.425632 194.819 158.719)" stroke="black" stroke-width="3" stroke-linecap="round" stroke-linejoin="round"/>
<line x1="1.5" y1="-1.5" x2="11.5" y2="-1.5" transform="matrix(-0.209843 -0.977735 -0.977735 0.209843 166.728 172.43)" stroke="black" stroke-width="3" stroke-linecap="round" stroke-linejoin="round"/>
<line x1="1.5" y1="-1.5" x2="22.0372" y2="-1.5" transform="matrix(-0.715686 0.698422 0.698422 0.715686 238.651 15)" stroke="black" stroke-width="3" stroke-linecap="round" stroke-linejoin="round"/>
<line x1="1.5" y1="-1.5" x2="10.94" y2="-1.5" transform="matrix(0.660264 0.751033 0.751033 -0.660264 233.279 157.296)" stroke="black" stroke-width="3" stroke-linecap="round" stroke-linejoin="round"/>
<line x1="1.5" y1="-1.5" x2="31.8766" y2="-1.5" transform="matrix(0.859752 0.510712 0.510712 -0.859752 246.565 128.525)" stroke="black" stroke-width="3" stroke-linecap="round" stroke-linejoin="round"/>
<line x1="1.5" y1="-1.5" x2="21.4357" y2="-0.5" transform="matrix(1 0 0 -1 243.035 94.9201)" stroke="black" stroke-width="3" stroke-linecap="round" stroke-linejoin="round"/>
<path d="M266.618 48.5519L238.126 55.3871" stroke="black" stroke-width="3" stroke-linecap="round" stroke-linejoin="round"/>
</g>
<defs>
<clipPath id="clip0">
<rect width="275" height="179" fill="white"/>
</clipPath>
</defs>
</svg>
