<svg width="363" height="179" viewBox="0 0 363 179" fill="none" xmlns="http://www.w3.org/2000/svg">
<g clip-path="url(#clip0)">
<line x1="182.161" y1="176.5" x2="182.161" y2="157.5" stroke="black" stroke-width="3" stroke-linecap="round" stroke-linejoin="round"/>
<line x1="1.5" y1="-1.5" x2="20.7978" y2="-1.5" transform="matrix(-0.527766 0.849389 -0.942061 -0.33544 106.262 159)" stroke="black" stroke-width="3" stroke-linecap="round" stroke-linejoin="round"/>
<line x1="1.5" y1="-1.5" x2="11.7115" y2="-1.5" transform="matrix(0.272762 -0.962081 0.987057 0.160367 143.371 172.711)" stroke="black" stroke-width="3" stroke-linecap="round" stroke-linejoin="round"/>
<line x1="1.5" y1="-1.5" x2="26.166" y2="-1.5" transform="matrix(0.804323 0.594192 -0.79014 0.612927 48.3619 15.2805)" stroke="black" stroke-width="3" stroke-linecap="round" stroke-linejoin="round"/>
<line x1="1.5" y1="-1.5" x2="12.8184" y2="-1.5" transform="matrix(-0.757782 0.652508 -0.832492 -0.554037 55.4571 157.576)" stroke="black" stroke-width="3" stroke-linecap="round" stroke-linejoin="round"/>
<line x1="1.5" y1="-1.5" x2="40.0629" y2="-1.5" transform="matrix(-0.912031 0.410122 -0.617327 -0.786707 37.9066 128.805)" stroke="black" stroke-width="3" stroke-linecap="round" stroke-linejoin="round"/>
<line x1="41.0695" y1="96.7007" x2="13.7717" y2="95.7007" stroke="black" stroke-width="3" stroke-linecap="round" stroke-linejoin="round"/>
<path d="M11.417 48.8324L49.0543 55.6676" stroke="black" stroke-width="3" stroke-linecap="round" stroke-linejoin="round"/>
<line x1="1.5" y1="-1.5" x2="20.7978" y2="-1.5" transform="matrix(0.527766 0.849389 0.942061 -0.33544 256.738 159.719)" stroke="black" stroke-width="3" stroke-linecap="round" stroke-linejoin="round"/>
<line x1="1.5" y1="-1.5" x2="11.7115" y2="-1.5" transform="matrix(-0.272762 -0.962081 -0.987057 0.160367 219.629 173.43)" stroke="black" stroke-width="3" stroke-linecap="round" stroke-linejoin="round"/>
<line x1="1.5" y1="-1.5" x2="26.166" y2="-1.5" transform="matrix(-0.804323 0.594192 0.79014 0.612927 314.638 16)" stroke="black" stroke-width="3" stroke-linecap="round" stroke-linejoin="round"/>
<line x1="1.5" y1="-1.5" x2="12.8184" y2="-1.5" transform="matrix(0.757782 0.652508 0.832492 -0.554037 307.543 158.296)" stroke="black" stroke-width="3" stroke-linecap="round" stroke-linejoin="round"/>
<line x1="1.5" y1="-1.5" x2="40.0629" y2="-1.5" transform="matrix(0.912031 0.410122 0.617327 -0.786707 325.093 129.525)" stroke="black" stroke-width="3" stroke-linecap="round" stroke-linejoin="round"/>
<line x1="1.5" y1="-1.5" x2="28.7978" y2="-0.5" transform="matrix(1 0 0 -1 320.43 95.9201)" stroke="black" stroke-width="3" stroke-linecap="round" stroke-linejoin="round"/>
<path d="M351.583 49.5519L313.946 56.3871" stroke="black" stroke-width="3" stroke-linecap="round" stroke-linejoin="round"/>
<path d="M122.124 0.944531C119.402 3.73936 115.108 11.9545 113.433 17.7135C110.187 28.4694 107.778 51.4208 109.663 52.9453C110.082 53.284 110.396 52.0137 110.396 50.1504C110.396 45.2383 113.223 32.5346 115.737 26.5214C118.564 19.492 124.009 14.3258 128.721 14.3258C132.805 14.3258 139.716 18.5604 143.8 23.6419C147.989 28.9775 147.465 26.9449 142.753 19.7461C136.889 10.8535 131.025 3.90874 127.569 1.70676C124.323 -0.325844 123.59 -0.495227 122.124 0.944531Z" fill="black"/>
<path d="M230.627 2.20509C228.838 3.47725 225.577 6.61525 223.367 9.24439C218.948 14.4179 212.32 24.5952 213.056 25.104C213.267 25.2737 214.95 23.6623 216.739 21.6268C218.527 19.5065 221.579 17.047 223.472 16.1141C230.522 12.7216 235.677 14.5875 240.306 22.2205C243.568 27.6484 244.725 30.8712 247.461 42.9143L249.565 52.1587L249.039 41.5574C248.408 26.9699 244.725 12.9761 239.57 5.59752C237.466 2.54433 235.361 0 234.835 0C234.309 0 232.415 1.01773 230.627 2.20509Z" fill="black"/>
<path d="M215.673 63.8568C215.185 64.3608 214.915 65.8729 214.969 67.9898C214.969 69.8042 215.239 85.7815 215.456 103.472L215.889 135.578H223.793C231.913 135.578 233.916 135.175 232.617 133.965C232.129 133.512 229.693 133.209 225.308 133.058L218.758 132.806L218.271 130.941C218 129.933 218 122.071 218.271 113.15C218.65 99.8939 218.812 97.1722 219.516 96.769C219.949 96.517 221.952 96.265 224.009 96.265C227.853 96.265 228.34 95.9122 226.499 94.1985C225.579 93.3417 224.821 93.1905 222.06 93.2913L218.704 93.4425L218.379 88.1504C217.675 77.5156 217.73 65.9233 218.542 65.4697C218.921 65.2177 221.681 65.0161 224.659 65.0161C230.072 65.0161 231.859 64.6128 231.209 63.5544C230.938 63.2016 228.34 63 223.63 63C217.567 63 216.268 63.1512 215.673 63.8568Z" fill="black"/>
<path d="M77.3051 65.6208C77.0886 65.9737 76.9262 82.0517 77.0345 101.305C77.1427 131.143 77.3051 136.435 77.9547 137.09C79.687 138.703 79.9036 136.989 80.0118 117.686L80.1201 98.5834L81.9066 98.1802C82.881 97.9282 85.696 97.8274 88.132 97.8778L92.571 98.029L92.95 101.053C93.1665 102.716 93.2206 111.335 93.0041 120.206C92.7334 134.822 92.7875 136.385 93.5996 137.04C94.3033 137.594 94.6281 137.594 95.386 137.04C96.198 136.385 96.198 134.721 95.8191 117.182C95.6025 106.648 95.3319 90.8216 95.2777 82.0517C95.1695 73.2819 94.9529 65.8224 94.7364 65.52C94.5198 65.2176 94.0868 65.0664 93.762 65.1672C93.2748 65.3184 93.1124 69.401 93.1124 80.2373C93.1124 88.4527 92.8958 95.3577 92.6793 95.6098C92.0838 96.1642 80.6073 96.1642 80.0118 95.6098C79.7953 95.3577 79.5788 88.6543 79.5788 80.7413C79.5788 72.7779 79.5246 65.9737 79.4164 65.6208C79.3622 65.3184 78.9833 65.016 78.5502 65.016C78.1171 65.016 77.5758 65.3184 77.3051 65.6208Z" fill="black"/>
<path d="M241.278 70.157C240.791 70.6106 240.628 78.3221 240.628 102.616C240.628 130.286 240.737 134.52 241.44 135.074C242.09 135.578 242.415 135.578 243.064 135.074C243.714 134.57 243.876 132.806 243.876 125.246C243.876 117.988 244.039 115.922 244.634 115.468C245.609 114.712 246.637 116.022 250.373 122.978C253.891 129.58 257.41 134.973 258.384 135.326C258.818 135.477 259.521 135.326 259.9 135.024C260.821 134.318 260.604 133.915 254.324 124.339C247.449 113.754 247.449 113.754 248.532 111.738C249.073 110.881 251.347 107.505 253.621 104.329C259.467 96.2146 260.442 94.2994 259.034 93.4929C258.006 92.8881 256.869 94.2994 252.159 101.759C247.125 109.773 245.176 112.394 244.364 112.394C244.093 112.394 243.876 105.186 243.822 93.8457C243.768 70.913 243.443 68.141 241.278 70.157Z" fill="black"/>
<path d="M265.53 71.0138C264.881 72.2235 264.826 124.994 265.476 130.488C266.126 135.427 266.559 135.729 272.622 135.427C280.958 135.024 284.207 132.05 285.614 123.482C286.372 118.895 285.939 103.926 284.964 101.204C283.232 96.3154 278.901 93.7449 272.459 93.7449C268.724 93.7449 268.291 93.6441 267.966 92.6865C267.75 92.0817 267.75 87.2431 267.966 81.9006C268.183 76.6084 268.183 71.7195 267.966 71.165C267.533 69.8042 266.288 69.7538 265.53 71.0138ZM277.819 97.7267C280.688 99.3899 282.204 102.464 282.907 108.109C283.503 113.301 283.232 121.163 282.258 125.901C281.283 130.588 278.306 132.605 272.189 132.756C270.132 132.806 269.157 132.605 268.778 132.05C268.237 131.244 268.02 100.801 268.562 98.9867C269.211 96.7186 274.733 96.013 277.819 97.7267Z" fill="black"/>
<path d="M159.427 72.0723C158.723 72.4755 158.615 76.6084 158.615 104.38C158.615 126.859 158.777 136.435 159.21 136.989C159.535 137.443 160.185 137.645 160.726 137.443C161.43 137.191 161.592 136.183 161.646 130.941C161.701 127.514 161.863 123.179 162.079 121.214C162.621 115.619 163.433 116.123 168.088 124.439C173.177 133.764 175.938 137.695 177.183 137.493C177.67 137.393 178.157 136.939 178.266 136.485C178.374 135.981 175.613 131.294 172.203 125.952C168.738 120.659 165.923 115.922 165.923 115.418C165.923 114.914 168.359 111.083 171.336 106.95C177.021 98.9867 177.995 97.273 177.508 96.013C176.696 94.0473 175.613 95.2066 169.171 105.337C163.866 113.704 162.946 114.863 162.242 114.158C162.025 113.956 161.755 104.38 161.592 92.8881C161.43 79.5317 161.105 71.8707 160.78 71.7195C160.51 71.6691 159.86 71.8203 159.427 72.0723Z" fill="black"/>
<path d="M141.021 94.2994C137.773 95.509 135.987 98.3315 136.041 102.162C136.095 105.892 137.99 109.369 142.645 114.158C144.811 116.375 147.03 119.047 147.572 120.055C149.629 123.784 148.438 130.034 145.135 133.008C143.024 134.923 139.884 135.78 137.936 134.923C136.149 134.167 134.958 135.225 136.257 136.385C137.719 137.745 142.104 137.897 144.594 136.687C148.871 134.671 150.657 131.596 151.144 125.649C151.577 120.71 150.549 118.341 145.893 113.603C141.13 108.765 138.856 104.783 138.856 101.406C138.856 97.2226 142.158 94.4506 145.352 96.013C147.355 96.9706 148.059 96.9706 148.059 96.013C148.059 95.1058 145.298 93.7449 143.62 93.7953C142.916 93.7953 141.779 94.0473 141.021 94.2994Z" fill="black"/>
<path d="M181.839 94.501C181.351 95.6602 181.947 97.3234 185.141 103.724C191.15 115.821 191.799 120.458 188.984 131.244C187.577 136.788 187.685 138.501 189.363 137.191C190.338 136.385 191.041 134.167 192.72 125.851C194.019 119.349 195.643 114.611 200.84 102.061C202.789 97.3738 203.222 94.501 202.085 94.0977C200.515 93.5937 199.486 94.9042 198.133 99.1883C194.452 110.68 193.477 113.402 193.044 113.402C192.503 113.402 189.526 107.101 187.36 101.406C186.602 99.3899 185.574 97.021 185.087 96.1138C183.787 93.7449 182.38 93.0897 181.839 94.501Z" fill="black"/>
<path d="M125.431 95.8618C125.106 96.1642 124.997 101.053 125.214 109.521C125.539 125.448 124.943 130.79 122.616 133.209C121.316 134.57 120.721 134.772 117.635 134.973C115.037 135.125 113.629 134.973 112.384 134.318C109.298 132.857 109.082 131.798 108.649 112.998C108.27 96.4666 108.216 96.013 107.187 96.013C106.105 96.013 106.105 96.3658 106.105 113.906C106.105 127.816 106.267 132.151 106.862 133.411C107.729 135.377 110.814 136.889 114.874 137.393C118.501 137.796 120.937 137.393 123.373 135.83L125.322 134.621V136.082C125.322 137.645 125.647 137.846 127.163 137.292C127.921 137.04 128.029 134.822 128.029 117.484C128.029 106.799 127.867 97.5251 127.704 96.9203C127.325 95.6602 126.243 95.1058 125.431 95.8618Z" fill="black"/>
</g>
<defs>
<clipPath id="clip0">
<rect width="363" height="179" fill="white"/>
</clipPath>
</defs>
</svg>
