<svg width="795" height="200" viewBox="0 0 795 200" fill="none" xmlns="http://www.w3.org/2000/svg">
<g clip-path="url(#clip0)">
<path d="M402.2 2.19998C399.6 5.49998 395.5 15.2 393.9 22C390.8 34.7 388.5 61.8 390.3 63.6C390.7 64 391 62.5 391 60.3C391 54.5 393.7 39.5 396.1 32.4C398.8 24.1 404 18 408.5 18C412.4 18 419 23 422.9 29C426.9 35.3 426.4 32.9 421.9 24.4C416.3 13.9 410.7 5.69998 407.4 3.09998C404.3 0.699981 403.6 0.499981 402.2 2.19998Z" fill="black"/>
<path d="M472 3.6C470.3 5.1 467.2 8.8 465.1 11.9C460.9 18 454.6 30 455.3 30.6C455.5 30.8 457.1 28.9 458.8 26.5C460.5 24 463.4 21.1 465.2 20C471.9 16 476.8 18.2 481.2 27.2C484.3 33.6 485.4 37.4 488 51.6L490 62.5L489.5 50C488.9 32.8 485.4 16.3 480.5 7.6C478.5 4 476.5 0.999999 476 0.999999C475.5 0.999999 473.7 2.2 472 3.6Z" fill="black"/>
<path d="M546.9 24.7C546 25.7 545.5 28.7 545.6 32.9C545.6 36.5 546.1 68.2 546.5 103.3L547.3 167H561.9C576.9 167 580.6 166.2 578.2 163.8C577.3 162.9 572.8 162.3 564.7 162L552.6 161.5L551.7 157.8C551.2 155.8 551.2 140.2 551.7 122.5C552.4 96.2 552.7 90.8 554 90C554.8 89.5 558.5 89 562.3 89C569.4 89 570.3 88.3 566.9 84.9C565.2 83.2 563.8 82.9 558.7 83.1L552.5 83.4L551.9 72.9C550.6 51.8 550.7 28.8 552.2 27.9C552.9 27.4 558 27 563.5 27C573.5 27 576.8 26.2 575.6 24.1C575.1 23.4 570.3 23 561.6 23C550.4 23 548 23.3 546.9 24.7Z" fill="black"/>
<path d="M112.3 28.1999C111.9 28.8999 111.6 60.7999 111.8 98.9999C112 158.2 112.3 168.7 113.5 170C116.7 173.2 117.1 169.8 117.3 131.5L117.5 93.5999L120.8 92.7999C122.6 92.2999 127.8 92.0999 132.3 92.1999L140.5 92.4999L141.2 98.4999C141.6 101.8 141.7 118.9 141.3 136.5C140.8 165.5 140.9 168.6 142.4 169.9C143.7 171 144.3 171 145.7 169.9C147.2 168.6 147.2 165.3 146.5 130.5C146.1 109.6 145.6 78.1999 145.5 60.7999C145.3 43.3999 144.9 28.5999 144.5 27.9999C144.1 27.3999 143.3 27.0999 142.7 27.2999C141.8 27.5999 141.5 35.6999 141.5 57.1999C141.5 73.4999 141.1 87.1999 140.7 87.6999C139.6 88.7999 118.4 88.7999 117.3 87.6999C116.9 87.1999 116.5 73.8999 116.5 58.1999C116.5 42.3999 116.4 28.8999 116.2 28.1999C116.1 27.5999 115.4 26.9999 114.6 26.9999C113.8 26.9999 112.8 27.5999 112.3 28.1999Z" fill="black"/>
<path d="M427.6 37.5C424.9 38.3 421.5 39.7 420.1 40.8C418.7 41.8 416.2 43.4 414.5 44.3C412.9 45.2 408.8 48.4 405.6 51.5C402.3 54.5 399.3 57 398.8 57C398.4 57 398 57.5 398 58.1C398 58.7 397.2 60.4 396.2 61.8C393.3 66 385.1 93.3 385.1 99C385 99.8 387 96.3 389.5 91.3C393.8 82.1 396.8 78.4 402.3 75.4C404.8 74.1 405.4 74 406.8 75.3C409.4 77.4 411.6 78 412.9 76.7C413.5 76.1 415.4 75.1 417.2 74.6C419.8 73.7 420.6 72.8 421.1 70C421.8 66.5 425.1 63 427.6 63C431.2 63 434.4 65.7 436.7 70.8C439.8 77.9 439.6 79.3 435.2 84.3C430.8 89.2 427.6 94 428.8 94C429.2 94 430.1 93.5 430.7 92.9C432.3 91.3 435.7 92.7 436.4 95.3C436.7 96.5 437 99.7 437 102.5C437 105.2 437.5 109.3 438.1 111.5C439.1 115.2 439.3 115.3 440.6 113.5C441.4 112.5 442 109.6 442 107.1C442.1 101 443.5 94.1 444.9 92.7C445.8 91.8 446.8 91.9 449 93.2C450.7 94.1 452 94.5 452 94C452 93 445 84 442.7 82.1C440.4 80.3 440.6 76.2 443 70.8C445.4 65.2 447 63.9 451 63.8C454.9 63.7 458 66.5 458.9 71.1C459.5 73.9 460.1 74.6 462.5 74.8C464.1 75 465.9 75.9 466.5 76.7C467.6 78.1 468 78.1 470.7 76.5C474.5 74.3 477.8 75 482.5 79.1C485.7 81.9 493 95 493 97.8C493 98.4 493.4 99.1 493.8 99.4C496.5 101 489.6 74.4 484.6 63.5C481.1 56 473.8 48.4 466.3 44.5C464.2 43.4 461.3 41.7 459.9 40.7C453.9 36.5 437.4 34.8 427.6 37.5Z" fill="black"/>
<path d="M594.2 37.2C593.3 38.1 593 53.4 593 101.6C593 156.5 593.2 164.9 594.5 166C595.7 167 596.3 167 597.5 166C598.7 165 599 161.5 599 146.5C599 132.1 599.3 128 600.4 127.1C602.2 125.6 604.1 128.2 611 142C617.5 155.1 624 165.8 625.8 166.5C626.6 166.8 627.9 166.5 628.6 165.9C630.3 164.5 629.9 163.7 618.3 144.7C605.6 123.7 605.6 123.7 607.6 119.7C608.6 118 612.8 111.3 617 105C627.8 88.9 629.6 85.1 627 83.5C625.1 82.3 623 85.1 614.3 99.9C605 115.8 601.4 121 599.9 121C599.4 121 599 106.7 598.9 84.2C598.8 38.7 598.2 33.2 594.2 37.2Z" fill="black"/>
<path d="M639 38.9C637.8 41.3 637.7 146 638.9 156.9C640.1 166.7 640.9 167.3 652.1 166.7C667.5 165.9 673.5 160 676.1 143C677.5 133.9 676.7 104.2 674.9 98.8C671.7 89.1 663.7 84 651.8 84C644.9 84 644.1 83.8 643.5 81.9C643.1 80.7 643.1 71.1 643.5 60.5C643.9 50 643.9 40.3 643.5 39.2C642.7 36.5 640.4 36.4 639 38.9ZM661.7 91.9C667 95.2 669.8 101.3 671.1 112.5C672.2 122.8 671.7 138.4 669.9 147.8C668.1 157.1 662.6 161.1 651.3 161.4C647.5 161.5 645.7 161.1 645 160C644 158.4 643.6 98 644.6 94.4C645.8 89.9 656 88.5 661.7 91.9Z" fill="black"/>
<path d="M264 41C262.7 41.8 262.5 50 262.5 105.1C262.5 149.7 262.8 168.7 263.6 169.8C264.2 170.7 265.4 171.1 266.4 170.7C267.7 170.2 268 168.2 268.1 157.8C268.2 151 268.5 142.4 268.9 138.5C269.9 127.4 271.4 128.4 280 144.9C289.4 163.4 294.5 171.2 296.8 170.8C297.7 170.6 298.6 169.7 298.8 168.8C299 167.8 293.9 158.5 287.6 147.9C281.2 137.4 276 128 276 127C276 126 280.5 118.4 286 110.2C296.5 94.4 298.3 91 297.4 88.5C295.9 84.6 293.9 86.9 282 107C272.2 123.6 270.5 125.9 269.2 124.5C268.8 124.1 268.3 105.1 268 82.3C267.7 55.8 267.1 40.6 266.5 40.3C266 40.2 264.8 40.5 264 41Z" fill="black"/>
<path d="M230 85.1C224 87.5 220.7 93.1 220.8 100.7C220.9 108.1 224.4 115 233 124.5C237 128.9 241.1 134.2 242.1 136.2C245.9 143.6 243.7 156 237.6 161.9C233.7 165.7 227.9 167.4 224.3 165.7C221 164.2 218.8 166.3 221.2 168.6C223.9 171.3 232 171.6 236.6 169.2C244.5 165.2 247.8 159.1 248.7 147.3C249.5 137.5 247.6 132.8 239 123.4C230.2 113.8 226 105.9 226 99.2C226 90.9 232.1 85.4 238 88.5C241.7 90.4 243 90.4 243 88.5C243 86.7 237.9 84 234.8 84.1C233.5 84.1 231.4 84.6 230 85.1Z" fill="black"/>
<path d="M305.4 85.5C304.5 87.8 305.6 91.1 311.5 103.8C322.6 127.8 323.8 137 318.6 158.4C316 169.4 316.2 172.8 319.3 170.2C321.1 168.6 322.4 164.2 325.5 147.7C327.9 134.8 330.9 125.4 340.5 100.5C344.1 91.2 344.9 85.5 342.8 84.7C339.9 83.7 338 86.3 335.5 94.8C328.7 117.6 326.9 123 326.1 123C325.1 123 319.6 110.5 315.6 99.2C314.2 95.2 312.3 90.5 311.4 88.7C309 84 306.4 82.7 305.4 85.5Z" fill="black"/>
<path d="M201.2 88.2C200.6 88.8 200.4 98.5 200.8 115.3C201.4 146.9 200.3 157.5 196 162.3C193.6 165 192.5 165.4 186.8 165.8C182 166.1 179.4 165.8 177.1 164.5C171.4 161.6 171 159.5 170.2 122.2C169.5 89.4 169.4 88.5 167.5 88.5C165.5 88.5 165.5 89.2 165.5 124C165.5 151.6 165.8 160.2 166.9 162.7C168.5 166.6 174.2 169.6 181.7 170.6C188.4 171.4 192.9 170.6 197.4 167.5L201 165.1V168C201 171.1 201.6 171.5 204.4 170.4C205.8 169.9 206 165.5 206 131.1C206 109.9 205.7 91.5 205.4 90.3C204.7 87.8 202.7 86.7 201.2 88.2Z" fill="black"/>
<path d="M383.6 111.5C382.6 114.1 382.9 128 384.1 134.6C385.7 143.8 389.1 151.9 391.2 151.7C392.2 151.6 393 150.9 393 150.1C393 147.8 398.3 153.6 401.2 159C406.2 168.3 407.6 169.9 413.9 174.2C417.4 176.5 421.9 180.6 423.7 183.2C425.6 185.8 430.1 190.2 433.6 193L440.1 198.1L444.8 195.1C447.4 193.5 452 188.9 455 185.1C458.5 180.6 462.2 177.1 465.2 175.5C470.2 172.8 474 168.1 479.3 158.2C483 151.2 485.8 148.7 487.8 150.6C490 152.9 490.7 152.3 492.9 145.9C495.8 137.2 497.4 124.5 496.6 116.7C495.9 110.7 495.7 110.2 494.1 111.2C491.6 112.8 487.9 118.5 486 123.8C485.1 126.4 483.9 129.6 483.3 131C482.8 132.4 481.3 136.3 480 139.8C478.6 143.6 476.2 147.6 473.8 150.1C469.3 154.7 464.1 157.3 462.3 155.9C461 154.7 460.5 155.3 458.5 160.9C456.3 167.3 450.1 174.7 445.2 177C441.4 178.8 440.3 178.9 437.2 177.9C430.9 175.8 425.4 170.2 421.9 162.4C419.1 156.1 418.5 155.4 416.4 155.8C413.3 156.4 407.8 152.8 404.1 147.8C402.4 145.5 399 137.9 396.4 130.9C392.9 121.4 390.7 117 388 114C385 110.6 384.1 110.2 383.6 111.5Z" fill="black"/>
<path d="M462.7 118.2C460.7 121.7 458.8 125.4 458.4 126.5C457 130.4 452.7 135.2 449.4 136.6C442.8 139.4 430.7 137.8 426.1 133.7C424.9 132.5 421.8 127.5 419.3 122.6C416.9 117.8 414.7 114 414.4 114.3C413.5 115.1 421.8 131.8 424.3 134.4C426.7 136.8 426.7 137.2 426.6 150.7C426.5 163.7 426.6 164.8 429 169C433.5 177.1 441.7 179 447.5 173.2C452.1 168.6 453 165 453 150C453 138.8 453.3 136.1 454.5 135.6C456 135.1 467.5 113.1 466.7 112.3C466.4 112.1 464.6 114.7 462.7 118.2Z" fill="black"/>
<path d="M430.5 122C428.5 124.2 428.6 129 430.6 131.8C432.4 134.4 437.1 137 440 137C447.1 137 453.5 127.5 450.1 122.1C448.7 119.9 432.5 119.8 430.5 122Z" fill="black"/>
<line x1="1.5" y1="-1.5" x2="19.43" y2="-1.5" transform="matrix(0.6716 0.740914 0.740914 -0.6716 712.492 151.958)" stroke="black" stroke-width="3" stroke-linecap="round" stroke-linejoin="round"/>
<line x1="1.5" y1="-1.5" x2="11.5" y2="-1.5" transform="matrix(-0.486536 -0.873661 -0.873661 0.486536 689.637 173.283)" stroke="black" stroke-width="3" stroke-linecap="round" stroke-linejoin="round"/>
<line x1="1.5" y1="-1.5" x2="22.0372" y2="-1.5" transform="matrix(-0.480215 0.877151 0.877151 0.480215 712.389 1.70386)" stroke="black" stroke-width="3" stroke-linecap="round" stroke-linejoin="round"/>
<line x1="1.5" y1="-1.5" x2="10.94" y2="-1.5" transform="matrix(0.850995 0.525174 0.525174 -0.850995 748.856 139.352)" stroke="black" stroke-width="3" stroke-linecap="round" stroke-linejoin="round"/>
<line x1="1.5" y1="-1.5" x2="31.8766" y2="-1.5" transform="matrix(0.971503 0.237029 0.237029 -0.971503 753.149 107.954)" stroke="black" stroke-width="3" stroke-linecap="round" stroke-linejoin="round"/>
<line x1="1.5" y1="-1.5" x2="21.4357" y2="-0.5" transform="matrix(0.956305 -0.292372 -0.292372 -0.956305 739.948 76.8498)" stroke="black" stroke-width="3" stroke-linecap="round" stroke-linejoin="round"/>
<path d="M748.944 25.6127L723.696 40.4795" stroke="black" stroke-width="3" stroke-linecap="round" stroke-linejoin="round"/>
<line x1="82.5679" y1="170.077" x2="70.5261" y2="183.362" stroke="black" stroke-width="3" stroke-linecap="round" stroke-linejoin="round"/>
<line x1="104.739" y1="187.243" x2="109.604" y2="178.506" stroke="black" stroke-width="3" stroke-linecap="round" stroke-linejoin="round"/>
<line x1="84.6036" y1="18.2993" x2="94.4659" y2="36.3135" stroke="black" stroke-width="3" stroke-linecap="round" stroke-linejoin="round"/>
<line x1="45.612" y1="157.416" x2="37.5786" y2="162.374" stroke="black" stroke-width="3" stroke-linecap="round" stroke-linejoin="round"/>
<line x1="40.7054" y1="125.767" x2="11.1945" y2="132.967" stroke="black" stroke-width="3" stroke-linecap="round" stroke-linejoin="round"/>
<line x1="53.1349" y1="93.8457" x2="34.3627" y2="87.0608" stroke="black" stroke-width="3" stroke-linecap="round" stroke-linejoin="round"/>
<path d="M46.0124 41.6127L71.2608 56.4795" stroke="black" stroke-width="3" stroke-linecap="round" stroke-linejoin="round"/>
<path d="M426.517 85.0013C426.401 85.7801 424.658 87.2876 423.431 87.2876C421.716 87.2876 420.573 85.0012 420.573 84.4296C420.573 83.4214 421.474 81.5716 423.431 81.5716C425.388 81.5716 426.86 82.7148 426.517 85.0013Z" fill="#3893EE"/>
<path d="M418.275 81.6219C417.408 81.9286 416.51 82.358 416.253 82.5727C415.836 82.9101 415.9 83.0021 416.702 83.3395C417.216 83.5542 418.082 84.321 418.628 85.0571C420.682 87.8789 422.607 88.983 425.527 88.983C428.062 88.983 428.447 88.5843 428.223 86.284C428.03 84.0756 427.26 82.6647 425.752 81.7139C424.372 80.7938 420.585 80.7631 418.275 81.6219ZM425.688 82.7261C427.228 84.3823 426.009 86.8974 423.666 86.8974C420.553 86.8974 419.911 82.9101 422.864 81.8366C423.698 81.5299 424.918 81.9286 425.688 82.7261Z" fill="black"/>
<circle cx="423.774" cy="84.4296" r="0.571602" fill="black"/>
<path d="M453.76 85.0013C453.877 85.7801 455.619 87.2876 456.847 87.2876C458.562 87.2876 459.705 85.0012 459.705 84.4296C459.705 83.4214 458.804 81.5716 456.847 81.5716C454.889 81.5716 453.417 82.7148 453.76 85.0013Z" fill="#3893EE"/>
<path d="M462.003 81.6219C462.869 81.9286 463.768 82.358 464.024 82.5727C464.441 82.9101 464.377 83.0021 463.575 83.3395C463.062 83.5542 462.195 84.321 461.65 85.0571C459.596 87.8789 457.671 88.983 454.75 88.983C452.215 88.983 451.83 88.5843 452.055 86.284C452.247 84.0756 453.017 82.6647 454.526 81.7139C455.906 80.7938 459.692 80.7631 462.003 81.6219ZM454.59 82.7261C453.05 84.3823 454.269 86.8974 456.612 86.8974C459.724 86.8974 460.366 82.9101 457.414 81.8366C456.579 81.5299 455.36 81.9286 454.59 82.7261Z" fill="black"/>
<circle r="0.571602" transform="matrix(-1 0 0 1 456.504 84.4296)" fill="black"/>
</g>
<defs>
<clipPath id="clip0">
<rect width="795" height="200" fill="white"/>
</clipPath>
</defs>
</svg>
