<svg width="321" height="651" viewBox="0 0 321 651" fill="none" xmlns="http://www.w3.org/2000/svg">
<path d="M126.53 1.10787C111.505 2.97134 92.6426 9.65794 82.8821 16.6734C79.8114 18.7561 79.4824 18.7561 75.9731 17.0022C68.8446 13.7138 64.7869 14.5907 56.3425 21.3869C43.7307 31.4716 39.7826 33.8831 33.6412 34.9793C20.5907 37.5005 8.63691 51.3121 8.63691 63.918C8.63691 68.0834 9.29492 69.5084 13.6816 74.6604C20.4811 82.4431 30.6802 98.0086 35.6152 107.874C38.3569 113.574 39.8923 118.178 40.331 123.33C40.989 129.468 41.647 131.113 44.1693 133.195C45.8144 134.62 48.4464 135.826 50.0914 135.826C54.1491 135.826 59.9615 131.99 61.4969 128.372C62.5936 125.632 62.8129 126.07 64.0193 134.182C65.4449 143.719 66.7609 148.432 70.709 157.969C73.67 165.094 74.1087 174.959 72.2443 190.415C70.5993 203.35 67.5286 212.338 62.2646 219.135C46.911 239.414 31.8865 289.398 28.9255 330.395C27.9385 343.439 30.3512 363.937 37.2603 401.755C40.2213 418.088 42.634 431.79 42.634 432.228C42.634 432.557 40.002 431.571 36.9313 429.926C29.0352 425.871 17.52 425.542 12.256 429.378C-3.9749 440.888 -4.08457 485.721 11.927 533.733C15.9847 545.791 25.6354 566.508 30.4608 573.853L33.8605 578.785L30.3512 581.635C23.1131 587.445 13.243 598.297 10.9399 603.01C7.43057 610.355 7.75957 617.151 12.1463 621.974C17.3007 628.003 23.2228 630.634 31.6672 630.634C35.6152 630.743 40.331 630.414 42.305 629.976C45.8144 629.209 45.8144 629.209 44.7177 632.059C42.7437 637.32 43.1823 644.445 45.7047 646.857C48.5561 649.817 59.3035 650.913 86.8302 650.913C113.918 651.022 115.015 650.474 114.905 637.32C114.905 634.251 114.467 629.538 114.028 626.688C113.041 620.659 113.041 620.659 121.047 623.07C142.542 629.647 174.455 629.428 200.556 622.632L208.452 620.549L207.794 623.947C205.052 639.622 206.039 647.515 211.084 649.817C214.264 651.242 249.577 651.351 264.054 650.036C272.388 649.268 273.595 648.83 276.007 645.98C278.64 642.911 278.859 639.403 276.665 631.511C276.007 629.209 276.227 629.099 279.078 629.866C285.22 631.511 296.186 630.743 301.012 628.332C316.256 620.33 316.256 606.957 301.012 591.391C297.393 587.664 292.677 583.28 290.703 581.635L287.194 578.785L291.142 572.537C309.237 544.366 322.945 492.298 320.752 460.619C319.107 436.394 310.882 425.213 295.967 426.638C292.677 426.857 287.523 428.282 284.671 429.598C281.82 430.913 279.298 431.9 279.078 431.68C278.859 431.461 279.627 426.309 280.723 420.28C288.619 379.722 292.677 352.099 292.677 339.055C292.677 302.224 276.007 241.387 260.106 220.56C251.771 209.708 248.81 198.198 248.81 176.713C248.81 163.998 249.139 161.148 251.552 153.913C253.087 149.419 255.171 140.649 256.158 134.511C257.912 123.878 258.022 123.549 259.228 127.167C260.764 131.551 266.466 135.826 270.853 135.826C272.498 135.826 275.24 134.62 276.885 133.195C279.407 131.113 280.065 129.468 280.723 123.33C281.162 118.178 282.588 113.574 285.329 108.093C290.155 98.3375 300.683 82.4431 307.373 74.6604C311.869 69.5084 312.417 68.193 312.417 63.6987C312.417 57.4506 309.676 51.3121 304.192 45.064C299.915 40.2409 291.142 34.9793 287.194 34.9793C283.904 34.9793 277.433 31.4716 270.634 25.8811C256.706 14.5907 251.99 13.0561 244.642 17.4407L241.133 19.633L235.869 15.906C225.78 8.67138 214.374 4.39636 197.924 1.54634C187.067 -0.317139 140.238 -0.536374 126.53 1.10787ZM143.529 127.386C145.941 130.126 150.109 133.415 152.85 134.73C160.088 138.238 159.54 140.54 149.78 150.296C145.393 154.68 138.264 163.559 133.878 169.917C129.491 176.275 124.775 182.632 123.35 183.948L120.718 186.469L118.853 183.619C117.866 182.084 116.002 177.919 114.905 174.521L112.712 168.163L113.37 174.192C113.699 177.48 114.905 182.084 116.112 184.386L118.086 188.661L114.138 187.894C103.28 185.921 93.4103 178.248 84.7465 165.313C80.6888 159.174 79.3728 155.776 77.1794 146.24C73.5604 130.126 72.7927 123.111 74.5474 122.124C76.1924 121.028 78.6051 123.878 84.4175 133.743L88.6945 141.197L101.087 132.538C107.777 127.715 118.305 121.138 124.337 117.849L135.194 111.82L137.168 117.082C138.264 120.041 141.226 124.645 143.529 127.386ZM194.195 116.753C201.324 120.37 216.677 130.236 225.012 136.593C228.631 139.224 231.592 141.307 231.702 141.088C231.921 140.869 233.566 137.909 235.54 134.401C239.488 127.386 244.094 121.576 245.629 121.576C247.274 121.576 246.726 129.359 244.423 140.759C241.023 157.092 239.159 162.682 234.443 169.698C226.767 181.207 217.554 187.894 207.465 189.209L202.201 189.867L204.504 187.236C207.136 184.277 208.891 179.453 209.878 172C210.645 166.299 209 167.944 207.684 174.192C206.697 178.905 203.078 186.25 201.762 186.25C200.446 186.25 196.06 180.55 186.518 166.409C182.132 160.051 175.881 152.269 172.591 149.09C167.655 144.486 166.559 142.732 166.559 139.772C166.559 136.703 167.107 136.045 170.617 134.84C175.771 132.976 183.338 125.084 185.86 118.836C187.067 116.095 188.054 113.903 188.273 113.903C188.383 113.903 191.124 115.218 194.195 116.753ZM170.507 154.68C173.578 157.859 180.487 166.409 186.08 173.753C191.563 180.988 197.266 187.565 198.582 188.332C200.556 189.319 198.801 189.429 189.589 188.771C175.003 187.675 148.464 187.675 134.316 188.661L123.35 189.538L127.736 184.825C130.259 182.303 136.51 174.74 141.664 168.053C158.224 146.678 161.514 145.144 170.507 154.68ZM110.08 195.567C117.318 197.43 131.904 197.65 150.109 196.115C158.443 195.457 166.997 195.677 181.364 196.992C206.917 199.184 215.361 197.979 227.205 190.196C230.166 188.223 230.166 188.223 229.508 190.196C229.07 191.402 225.67 198.636 221.831 206.529C200.008 251.033 172.042 266.489 143.858 249.608C127.627 239.962 112.383 221.765 92.3136 188.113C91.9846 187.565 94.3973 188.661 97.6873 190.525C100.868 192.279 106.461 194.58 110.08 195.567ZM236.088 551.272C243.875 554.889 251.003 560.699 254.184 565.96C256.048 568.92 256.596 571.989 257.035 583.499C257.803 600.051 259.448 608.71 265.26 625.591C267.673 632.497 269.647 638.855 269.647 639.732C269.647 640.828 268.55 641.157 265.699 640.938C261.751 640.609 261.641 640.499 258.022 630.853C253.745 619.453 251.771 616.822 249.468 619.234C248.152 620.659 248.481 622.303 252.1 631.291C254.403 636.991 256.158 641.815 256.158 641.815C256.048 641.924 253.635 642.253 250.784 642.472L245.629 643.02L240.475 633.922C236.856 627.455 234.663 624.714 233.237 624.714C230.166 624.714 229.728 627.564 232.14 630.963C233.347 632.607 235.321 636.115 236.637 638.745L239.049 643.459L227.205 643.13L215.361 642.801L215.032 638.745C214.813 636.553 216.019 626.907 217.664 617.37C220.406 601.366 220.625 597.968 220.406 573.304L220.186 546.558L224.793 547.325C227.425 547.764 232.469 549.518 236.088 551.272Z" fill="black"/>
<path d="M105.633 51.1767C103.33 51.5978 100.297 52.833 97.9939 54.2927C96.1404 55.4718 93.0511 58.0544 93.2477 58.2509C93.332 58.3352 94.1183 57.9421 95.017 57.4088C97.6007 55.8648 99.4262 55.0226 102.066 54.1243C109.368 51.682 115.799 52.6926 122.708 57.2965C124.421 58.4474 124.533 58.5036 124.028 57.7737C123.719 57.3245 122.876 56.4543 122.174 55.8367C117.344 51.5978 111.839 50.0257 105.633 51.1767Z" fill="white"/>
<path d="M108.02 57.9421C106.363 58.2789 103.555 59.2895 101.982 60.1036L100.297 61.0019L100.353 62.9109C100.465 68.5534 103.835 74.0276 108.554 76.2453C110.519 77.1998 110.941 77.284 113.637 77.3682C116.951 77.5086 119.366 76.9471 122.427 75.4312L124.028 74.6171L124.056 76.7787C124.084 78.7999 124.112 78.856 124.337 77.7051C124.674 75.6838 124.618 72.2871 124.168 70.1816C122.933 64.2584 119.956 60.3282 115.378 58.5877C113.805 57.9982 109.677 57.6333 108.02 57.9421Z" fill="white"/>
<path d="M212.7 51.1767C215.003 51.5978 218.036 52.833 220.339 54.2927C222.192 55.4718 225.282 58.0544 225.085 58.2509C225.001 58.3352 224.214 57.9421 223.316 57.4088C220.732 55.8648 218.907 55.0226 216.267 54.1243C208.965 51.682 202.534 52.6926 195.625 57.2965C193.912 58.4474 193.799 58.5036 194.305 57.7737C194.614 57.3245 195.456 56.4543 196.159 55.8367C200.989 51.5978 206.493 50.0257 212.7 51.1767Z" fill="white"/>
<path d="M210.313 57.9421C211.97 58.2789 214.778 59.2895 216.351 60.1036L218.036 61.0019L217.98 62.9109C217.867 68.5534 214.497 74.0276 209.779 76.2453C207.813 77.1998 207.392 77.284 204.696 77.3682C201.382 77.5086 198.967 76.9471 195.906 75.4312L194.305 74.6171L194.277 76.7787C194.249 78.7999 194.221 78.856 193.996 77.7051C193.659 75.6838 193.715 72.2871 194.165 70.1816C195.4 64.2584 198.377 60.3282 202.955 58.5877C204.527 57.9982 208.656 57.6333 210.313 57.9421Z" fill="white"/>
<ellipse cx="115.846" cy="64.7071" rx="3.5105" ry="3.50906" fill="black"/>
<ellipse cx="148.424" cy="122.256" rx="3.51049" ry="3.50907" fill="white"/>
<ellipse cx="176.789" cy="122.256" rx="3.51049" ry="3.50907" fill="white"/>
<ellipse cx="209.366" cy="64.7071" rx="3.51049" ry="3.50906" fill="black"/>
</svg>
